<svg xmlns="http://www.w3.org/2000/svg" width="683" height="502.306"><g transform="translate(-925.5 -169.194)"><circle data-name="Ellipse 20" cx="12" cy="12" r="12" transform="translate(1518 323)" fill="#d9e1e3"/><g data-name="Group 351"><g data-name="Group 350"><path data-name="Rectangle 164" fill="#f9fafb" stroke="#00202c" stroke-width="2" d="M1256.437 215.552h22.572v102.071h-22.572z"/><path data-name="Rectangle 165" fill="#fff" stroke="#00202c" stroke-width="2" d="M1233.866 215.552h22.571v102.071h-22.571z"/><path data-name="Rectangle 166" d="M1256.437 185.5h2.128a12.138 12.138 0 0112.137 12.137h-14.265z" fill="#fff" stroke="#00202c" stroke-width="2"/><path data-name="Rectangle 167" d="M1254.305 185.5h2.131v12.137h-14.268a12.138 12.138 0 0112.137-12.137z" fill="#fff" stroke="#00202c" stroke-width="2"/><path data-name="Rectangle 168" fill="#f9fafb" stroke="#00202c" stroke-width="2" d="M1161.208 215.552h22.57v102.071h-22.57z"/><path data-name="Rectangle 169" fill="#f9fafb" stroke="#00202c" stroke-width="2" d="M1138.637 215.552h22.571v102.071h-22.571z"/><path data-name="Rectangle 170" d="M1161.208 185.5h2.129a12.138 12.138 0 0112.137 12.137h-14.266z" fill="#fff" stroke="#00202c" stroke-width="2"/><path data-name="Rectangle 171" d="M1159.078 185.5h2.129v12.137h-14.266a12.138 12.138 0 0112.137-12.137z" fill="#fff" stroke="#00202c" stroke-width="2"/><path data-name="Path 309" d="M1258.526 199.727h-17.3a5.276 5.276 0 00-5.276 5.276v12.638h22.571z" fill="#ebf4f6"/><path data-name="Path 310" d="M1258.526 217.639h22.572v-12.636a5.276 5.276 0 00-5.276-5.276h-17.3z" fill="#ebf4f6"/><path data-name="Path 313" d="M1163.296 199.727h-17.3a5.276 5.276 0 00-5.276 5.276v12.638h22.571z" fill="#ebf4f6"/><path data-name="Path 314" d="M1163.296 217.639h22.57v-12.636a5.276 5.276 0 00-5.276-5.276h-17.294z" fill="#ebf4f6"/><path data-name="Path 309" d="M1256.438 197.639h-17.3a5.276 5.276 0 00-5.276 5.276v12.638h22.571z" fill="none" stroke="#00202c" stroke-width="2"/><path data-name="Path 310" d="M1256.437 215.551h22.572v-12.636a5.276 5.276 0 00-5.276-5.276h-17.3z" fill="none" stroke="#00202c" stroke-width="2"/><path data-name="Path 313" d="M1161.208 197.639h-17.3a5.276 5.276 0 00-5.276 5.276v12.638h22.571z" fill="none" stroke="#00202c" stroke-width="2"/><path data-name="Path 314" d="M1161.208 215.551h22.57v-12.636a5.276 5.276 0 00-5.276-5.276h-17.294z" fill="none" stroke="#00202c" stroke-width="2"/><path data-name="Rectangle 142" fill="#d9e1e3" stroke="#00202c" stroke-width="2" d="M1103.319 352.992h299.178V503.9h-299.178z"/><path data-name="Rectangle 143" fill="#fff" stroke="#00202c" stroke-width="2" d="M1103.319 337.066h299.178v15.926h-299.178z"/><path data-name="Path 304" d="M1168.673 374.092a11.632 11.632 0 11-11.635-11.628h0a11.632 11.632 0 0111.635 11.628z" fill="#fff" stroke="#00202c" stroke-width="2"/><path data-name="Path 305" d="M1137.731 374.092a11.631 11.631 0 11-11.633-11.628h0a11.63 11.63 0 0111.632 11.628z" fill="#fff" stroke="#00202c" stroke-width="2"/><path data-name="Path 306" d="M1134.413 374.091a8.336 8.336 0 11-8.336-8.336 8.336 8.336 0 018.336 8.336z" fill="#d9e1e3" stroke="#00202c" stroke-width="2"/><path data-name="Rectangle 156" fill="#fff" stroke="#00202c" stroke-width="2" d="M1117.739 374.093h8.336v129.905h-8.336z"/><path data-name="Rectangle 157" fill="#fff" stroke="#00202c" stroke-width="2" d="M1126.076 374.093h8.338v129.905h-8.338z"/><path data-name="Rectangle 158" fill="#d9e1e3" stroke="#00202c" stroke-width="2" d="M1126.094 402.783h10.965v10.714h-10.965z"/><path data-name="Rectangle 159" fill="#d9e1e3" stroke="#00202c" stroke-width="2" d="M1115.097 402.783h10.997v10.714h-10.997z"/><path data-name="Rectangle 160" fill="#d9e1e3" stroke="#00202c" stroke-width="2" d="M1126.094 430.108h10.965v10.716h-10.965z"/><path data-name="Rectangle 161" fill="#d9e1e3" stroke="#00202c" stroke-width="2" d="M1115.097 430.108h10.997v10.716h-10.997z"/><path data-name="Rectangle 162" fill="#d9e1e3" stroke="#00202c" stroke-width="2" d="M1126.094 457.258h10.965v10.714h-10.965z"/><path data-name="Rectangle 163" fill="#d9e1e3" stroke="#00202c" stroke-width="2" d="M1115.097 457.258h10.997v10.714h-10.997z"/><path data-name="Path 307" d="M1233.863 312.284h-2.084a10.643 10.643 0 00-10.642 10.642v14.14h35.3v-24.782z" fill="#f9fafb" stroke="#00202c" stroke-width="2"/><path data-name="Path 308" d="M1281.092 312.284h-24.654v24.782h35.3v-14.14a10.642 10.642 0 00-10.646-10.642z" fill="#fff" stroke="#00202c" stroke-width="2"/><path data-name="Path 311" d="M1138.637 312.284h-2.083a10.643 10.643 0 00-10.642 10.642v14.14h35.3v-24.782z" fill="#f9fafb" stroke="#00202c" stroke-width="2"/><path data-name="Path 312" d="M1185.862 312.284h-24.654v24.782h35.3v-14.14a10.643 10.643 0 00-10.646-10.642z" fill="#f9fafb" stroke="#00202c" stroke-width="2"/><path data-name="Rectangle 172" fill="#d9e1e3" stroke="#00202c" stroke-width="2" d="M1147.993 320.642h13.214v16.424h-13.214z"/><path data-name="Rectangle 173" fill="#d9e1e3" stroke="#00202c" stroke-width="2" d="M1174.611 320.642h13.214v16.424h-13.214z"/><path data-name="Rectangle 174" fill="#d9e1e3" stroke="#00202c" stroke-width="2" d="M1243.218 320.642h13.216v16.424h-13.216z"/><path data-name="Rectangle 175" fill="#d9e1e3" stroke="#00202c" stroke-width="2" d="M1269.837 320.642h13.213v16.424h-13.213z"/><path data-name="Path 316" d="M1208.002 413.498a22.974 22.974 0 11-22.974-22.974h0a22.974 22.974 0 0122.974 22.974z" fill="#f9fafb" stroke="#00202c" stroke-width="2"/><path data-name="Rectangle 176" fill="#f9fafb" stroke="#00202c" stroke-width="2" d="M1162.054 413.497h22.975v90.404h-22.975z"/><path data-name="Rectangle 177" fill="#f9fafb" stroke="#00202c" stroke-width="2" d="M1185.029 413.497h22.973v90.404h-22.973z"/><path data-name="Path 319" d="M1311.571 444.829h-10.35v59.072h35.31v-34.115z" fill="#fff" stroke="#00202c" stroke-width="2"/><path data-name="Path 320" d="M1270.856 413.498a22.974 22.974 0 11-22.974-22.974h0a22.974 22.974 0 0122.974 22.974z" fill="#f9fafb" stroke="#00202c" stroke-width="2"/><path data-name="Rectangle 178" fill="#f9fafb" stroke="#00202c" stroke-width="2" d="M1224.906 413.497h22.975v90.404h-22.975z"/><path data-name="Rectangle 179" fill="#f9fafb" stroke="#00202c" stroke-width="2" d="M1247.881 413.497h22.975v90.404h-22.975z"/><path data-name="Path 321" d="M1165.378 374.091a8.336 8.336 0 11-8.336-8.336 8.336 8.336 0 018.336 8.336z" fill="#d9e1e3" stroke="#00202c" stroke-width="2"/><path data-name="Rectangle 180" fill="#fff" stroke="#00202c" stroke-width="2" d="M1148.702 374.093h8.336v129.905h-8.336z"/><path data-name="Rectangle 181" fill="#fff" stroke="#00202c" stroke-width="2" d="M1157.038 374.093h8.336v129.905h-8.336z"/><path data-name="Rectangle 182" fill="#d9e1e3" stroke="#00202c" stroke-width="2" d="M1157.038 402.783h10.966v10.714h-10.966z"/><path data-name="Rectangle 183" fill="#d9e1e3" stroke="#00202c" stroke-width="2" d="M1146.043 402.783h10.995v10.714h-10.995z"/><path data-name="Rectangle 184" fill="#d9e1e3" stroke="#00202c" stroke-width="2" d="M1157.038 430.108h10.966v10.716h-10.966z"/><path data-name="Rectangle 185" fill="#d9e1e3" stroke="#00202c" stroke-width="2" d="M1146.043 430.108h10.995v10.716h-10.995z"/><path data-name="Rectangle 186" fill="#d9e1e3" stroke="#00202c" stroke-width="2" d="M1157.038 457.258h10.966v10.714h-10.966z"/><path data-name="Rectangle 187" fill="#d9e1e3" stroke="#00202c" stroke-width="2" d="M1146.043 457.258h10.995v10.714h-10.995z"/><path data-name="Rectangle 133" fill="#fc9600" d="M1304.137 396.524h8.689v19.685h-8.689z"/><path data-name="Rectangle 134" fill="#fc9600" d="M1316.45 396.524h8.689v19.685h-8.689z"/><path data-name="Rectangle 135" fill="#fc9600" d="M1304.137 374.802h8.689v19.55h-8.689z"/><path data-name="Rectangle 136" fill="#fc9600" d="M1316.45 374.802h8.689v19.55h-8.689z"/><path data-name="Rectangle 133" fill="none" stroke="#00202c" stroke-width="2" d="M1302.048 394.435h8.689v19.685h-8.689z"/><path data-name="Rectangle 134" fill="none" stroke="#00202c" stroke-width="2" d="M1314.361 394.435h8.689v19.685h-8.689z"/><path data-name="Rectangle 135" fill="none" stroke="#00202c" stroke-width="2" d="M1302.048 371.669h8.689v19.55h-8.689z"/><path data-name="Rectangle 136" fill="none" stroke="#00202c" stroke-width="2" d="M1314.361 371.669h8.689v19.55h-8.689z"/><path data-name="Rectangle 133" fill="#fc9600" d="M1341.73 396.524h8.689v19.685h-8.689z"/><path data-name="Rectangle 134" fill="#fc9600" d="M1354.043 396.524h8.689v19.685h-8.689z"/><path data-name="Rectangle 135" fill="#fc9600" d="M1341.73 374.802h8.689v19.55h-8.689z"/><path data-name="Rectangle 136" fill="#fc9600" d="M1354.043 374.802h8.689v19.55h-8.689z"/><path data-name="Rectangle 133" fill="none" stroke="#00202c" stroke-width="2" d="M1339.642 394.435h8.689v19.685h-8.689z"/><path data-name="Rectangle 134" fill="none" stroke="#00202c" stroke-width="2" d="M1351.955 394.435h8.689v19.685h-8.689z"/><path data-name="Rectangle 135" fill="none" stroke="#00202c" stroke-width="2" d="M1339.642 371.669h8.689v19.55h-8.689z"/><path data-name="Rectangle 136" fill="none" stroke="#00202c" stroke-width="2" d="M1351.955 371.669h8.689v19.55h-8.689z"/></g></g><g data-name="Group 349"><path data-name="Rectangle 90" d="M1390.5 383.5h98c8.47 0 16 6.53 16 15v239h-129v-239a14.769 14.769 0 0115-15z" fill="#f9fafb" stroke="#00202c" stroke-width="2"/><path data-name="Rectangle 91" d="M1396.5 394.5h87a8.958 8.958 0 019 9v222h-105v-222a8.958 8.958 0 019-9z" fill="#f9fafb" stroke="#00202c" stroke-width="2"/><path data-name="Path 291" d="M1432 414h22v16h16v22h-16v16h-22v-16h-16v-22h16z" fill="#fc9600" fill-rule="evenodd"/><path data-name="Rectangle 92" fill="#d9e1e3" stroke="#00202c" stroke-width="2" d="M1407.5 525.5h65v112h-65z"/><path data-name="Rectangle 93" fill="#d9e1e3" stroke="#00202c" stroke-width="2" d="M1397.5 623.5h86v7h-86z"/><path data-name="Rectangle 94" fill="#d9e1e3" stroke="#00202c" stroke-width="2" d="M1397.5 630.5h86v7h-86z"/><path data-name="Rectangle 95" fill="#d9e1e3" stroke="#00202c" stroke-width="2" d="M1397.5 637.5h86v8h-86z"/><path data-name="Rectangle 96" d="M1293.5 418.5h82v219h-93v-208a11.261 11.261 0 0111-11z" fill="#d9e1e3" stroke="#00202c" stroke-width="2"/><path data-name="Rectangle 98" fill="#fff" stroke="#00202c" stroke-width="2" d="M1294.5 477.5h17v44h-17z"/><path data-name="Rectangle 99" fill="#fff" stroke="#00202c" stroke-width="2" d="M1322.5 477.5h16v44h-16z"/><path data-name="Rectangle 100" fill="#fff" stroke="#00202c" stroke-width="2" d="M1349.5 477.5h16v44h-16z"/><path data-name="Rectangle 101" fill="#fff" stroke="#00202c" stroke-width="2" d="M1294.5 537.5h17v44h-17z"/><path data-name="Rectangle 102" fill="#fff" stroke="#00202c" stroke-width="2" d="M1322.5 537.5h16v44h-16z"/><path data-name="Rectangle 103" fill="#fff" stroke="#00202c" stroke-width="2" d="M1349.5 537.5h16v44h-16z"/><path data-name="Rectangle 104" fill="#f9fafb" stroke="#00202c" stroke-width="2" d="M1282.5 592.5h93v33h-93z"/><path data-name="Rectangle 105" d="M1504.5 418.5h82a11.261 11.261 0 0111 11v208h-93z" fill="#d9e1e3" stroke="#00202c" stroke-width="2"/><path data-name="Rectangle 97" fill="#ebf4f6" d="M1286 436h93v32h-93z"/><path data-name="Rectangle 106" fill="#ebf4f6" d="M1507 436h93v32h-93z"/><path data-name="Rectangle 107" fill="#fff" stroke="#00202c" stroke-width="2" d="M1568.5 477.5h17v44h-17z"/><path data-name="Rectangle 108" fill="#fff" stroke="#00202c" stroke-width="2" d="M1541.5 477.5h16v44h-16z"/><path data-name="Rectangle 109" fill="#fff" stroke="#00202c" stroke-width="2" d="M1513.5 477.5h17v44h-17z"/><path data-name="Rectangle 110" fill="#fff" stroke="#00202c" stroke-width="2" d="M1568.5 537.5h17v44h-17z"/><path data-name="Rectangle 111" fill="#fff" stroke="#00202c" stroke-width="2" d="M1541.5 537.5h16v44h-16z"/><path data-name="Rectangle 112" fill="#fff" stroke="#00202c" stroke-width="2" d="M1513.5 537.5h17v44h-17z"/><path data-name="Rectangle 113" fill="#f9fafb" stroke="#00202c" stroke-width="2" d="M1504.5 592.5h93v33h-93z"/><path data-name="Rectangle 114" fill="#fff" stroke="#00202c" stroke-width="2" d="M1364.5 510.5h151v22h-151z"/><path data-name="Path 291" d="M1428.5 411.5h22v16h16v22h-16v16h-22v-16h-15v-22h15z" fill="none" stroke="#00202c" stroke-width="2"/><path data-name="Rectangle 97" fill="none" stroke="#00202c" stroke-width="2" d="M1282.5 433.5h93v32h-93z"/><path data-name="Rectangle 106" fill="none" stroke="#00202c" stroke-width="2" d="M1504.5 433.5h93v32h-93z"/></g><g data-name="Group 348"><path data-name="Rectangle 115" fill="#f9fafb" stroke="#00202c" stroke-width="2" d="M1152.5 567.5h80v84h-80z"/><path data-name="Rectangle 116" fill="#f9fafb" stroke="#00202c" stroke-width="2" d="M973.5 567.5h79v84h-79z"/><path data-name="Rectangle 117" fill="#d9e1e3" stroke="#00202c" stroke-width="2" d="M969.5 651.5h92v7h-92z"/><path data-name="Rectangle 118" fill="#d9e1e3" stroke="#00202c" stroke-width="2" d="M966.5 658.5h95v12h-95z"/><path data-name="Rectangle 119" fill="#d9e1e3" stroke="#00202c" stroke-width="2" d="M1143.5 651.5h92v7h-92z"/><path data-name="Rectangle 120" fill="#d9e1e3" stroke="#00202c" stroke-width="2" d="M1143.5 658.5h95v12h-95z"/><path data-name="Rectangle 133" fill="#fc9600" d="M997 616h8v18h-8z"/><path data-name="Rectangle 134" fill="#fc9600" d="M1008 616h9v18h-9z"/><path data-name="Rectangle 135" fill="#fc9600" d="M997 595h8v18h-8z"/><path data-name="Rectangle 136" fill="#fc9600" d="M1008 595h9v18h-9z"/><path data-name="Rectangle 133" fill="none" stroke="#00202c" stroke-width="2" d="M994.5 613.5h8v19h-8z"/><path data-name="Rectangle 134" fill="none" stroke="#00202c" stroke-width="2" d="M1006.5 613.5h8v19h-8z"/><path data-name="Rectangle 135" fill="none" stroke="#00202c" stroke-width="2" d="M994.5 591.5h8v19h-8z"/><path data-name="Rectangle 136" fill="none" stroke="#00202c" stroke-width="2" d="M1006.5 591.5h8v19h-8z"/><path data-name="Rectangle 133" fill="#fc9600" d="M1192 616h8v18h-8z"/><path data-name="Rectangle 134" fill="#fc9600" d="M1203 616h9v18h-9z"/><path data-name="Rectangle 135" fill="#fc9600" d="M1192 595h8v18h-8z"/><path data-name="Rectangle 136" fill="#fc9600" d="M1203 595h9v18h-9z"/><path data-name="Rectangle 133" fill="none" stroke="#00202c" stroke-width="2" d="M1189.5 613.5h8v19h-8z"/><path data-name="Rectangle 134" fill="none" stroke="#00202c" stroke-width="2" d="M1201.5 613.5h8v19h-8z"/><path data-name="Rectangle 135" fill="none" stroke="#00202c" stroke-width="2" d="M1189.5 591.5h8v19h-8z"/><path data-name="Rectangle 136" fill="none" stroke="#00202c" stroke-width="2" d="M1201.5 591.5h8v19h-8z"/><path data-name="Path 292" d="M988 478h162v104H958z" fill="#ebf4f6" fill-rule="evenodd"/><path data-name="Path 293" d="M1060 582h191l-30-104h-161" fill="#ebf4f6" fill-rule="evenodd"/><path data-name="Path 292" d="M986.5 476.5h126l35 104h-191z" fill="none" stroke="#00202c" stroke-width="2"/><path data-name="Path 293" d="M1057.5 580.5h192l-30-104h-162" fill="none" stroke="#00202c" stroke-width="2"/><path data-name="Path 294" d="M1033.5 521.5l71-47 66 47v149h-137z" fill="#f9fafb" stroke="#00202c" stroke-width="2" fill-rule="evenodd"/><path data-name="Rectangle 121" fill="#d9e1e3" stroke="#00202c" stroke-width="2" d="M1085.5 611.5h33v59h-33z"/><path data-name="Path 297" d="M1112.5 643.5a2.416 2.416 0 002-2 2.416 2.416 0 00-2-2c-.861 0-1 1.139-1 2-.034.828.173 1.966 1 2 .042.002-.043.002 0 0z" fill="#fff" stroke="#00202c" stroke-width="2" fill-rule="evenodd"/><path data-name="Path 298" d="M1102.5 569.5c12.385-.036 22.036-10.615 22-23a21.707 21.707 0 00-22-22c-12.334.037-22.964 9.666-23 22a23.385 23.385 0 0023 23z" fill="#fff" stroke="#00202c" stroke-width="2" fill-rule="evenodd"/><path data-name="Path 299" d="M1105 564c8.365-.036 15.036-7.635 15-16a14.9 14.9 0 00-15-15c-8.315.036-15.966 6.685-16 15-.05 8.351 6.649 15.95 15 16z" fill="#fc9600" fill-rule="evenodd"/><path data-name="Path 299" d="M1102.5 562.5c8.365-.036 15.036-7.635 15-16a14.9 14.9 0 00-15-15 15.005 15.005 0 00-15 15c-.05 8.351 6.649 15.95 15 16z" fill="none" stroke="#00202c" stroke-width="2"/><path data-name="Path 295" d="M1082 468l21-21 21 21 85 85-20 21-86-86-85 86-21-21 86-85z" fill="#ebf4f6" fill-rule="evenodd"/><path data-name="Path 295" d="M1102.5 446.5h0l106 106-21 20-85-85-86 85-20-20z" fill="none" stroke="#00202c" stroke-width="2"/></g><g data-name="Ellipse 17" transform="translate(1514 319)" fill="none" stroke="#00202c" stroke-width="2"><circle cx="12" cy="12" r="12" stroke="none"/><circle cx="12" cy="12" r="11"/></g><circle data-name="Ellipse 28" cx="9.5" cy="9.5" r="9.5" transform="translate(1091 275)" fill="#ebf4f6"/><g data-name="Ellipse 19" transform="translate(1337 182)" fill="#fff" stroke="#00202c" stroke-width="2"><circle cx="6.5" cy="6.5" r="6.5" stroke="none"/><circle cx="6.5" cy="6.5" r="5.5" fill="none"/></g><g data-name="Group 352" fill="none" stroke="#00202c" stroke-width="2"><path data-name="Line 3" d="M1367.5 303.194v12.612"/><path data-name="Line 4" d="M1373.806 309.5h-12.612"/></g><g data-name="Group 353" fill="none" stroke="#00202c" stroke-width="2"><path data-name="Line 3" d="M1058.5 370.194v12.612"/><path data-name="Line 4" d="M1064.806 376.5h-12.612"/></g><g data-name="Group 354" fill="none" stroke="#00202c" stroke-width="2"><path data-name="Line 3" d="M1223.5 169.194v12.612"/><path data-name="Line 4" d="M1229.806 175.5h-12.612"/></g><path data-name="Line 5" fill="none" stroke="#00202c" stroke-linecap="round" stroke-width="2" d="M984.5 670.5h-58"/><path data-name="Line 6" fill="none" stroke="#00202c" stroke-linecap="round" stroke-width="2" d="M1607.5 637.5h-58"/><path data-name="Path 376" d="M1327.494 286.194l40.828-29.1 15.977 7.692 40.828-24.852 42.012 14.793 70.414-47.337" fill="none" stroke="#00202c" stroke-width="2"/><g data-name="Ellipse 21" transform="translate(1325 281)" fill="#fff" stroke="#00202c" stroke-width="2"><circle cx="4" cy="4" r="4" stroke="none"/><circle cx="4" cy="4" r="3" fill="none"/></g><g data-name="Ellipse 22" transform="translate(1364 253)" fill="#fff" stroke="#00202c" stroke-width="2"><circle cx="4" cy="4" r="4" stroke="none"/><circle cx="4" cy="4" r="3" fill="none"/></g><g data-name="Ellipse 23" transform="translate(1381 261)" fill="#fff" stroke="#00202c" stroke-width="2"><circle cx="4" cy="4" r="4" stroke="none"/><circle cx="4" cy="4" r="3" fill="none"/></g><g data-name="Ellipse 24" transform="translate(1421 236)" fill="#fff" stroke="#00202c" stroke-width="2"><circle cx="4" cy="4" r="4" stroke="none"/><circle cx="4" cy="4" r="3" fill="none"/></g><g data-name="Ellipse 25" transform="translate(1464 251)" fill="#fff" stroke="#00202c" stroke-width="2"><circle cx="4" cy="4" r="4" stroke="none"/><circle cx="4" cy="4" r="3" fill="none"/></g><circle data-name="Ellipse 27" cx="7" cy="7" r="7" transform="translate(1534 202)" fill="#fc9600"/><g data-name="Ellipse 26" transform="translate(1532 200)" fill="none" stroke="#00202c" stroke-width="2"><circle cx="7" cy="7" r="7" stroke="none"/><circle cx="7" cy="7" r="6"/></g><g data-name="Ellipse 18" transform="translate(1087 271)" fill="none" stroke="#00202c" stroke-width="2"><circle cx="10.5" cy="10.5" r="10.5" stroke="none"/><circle cx="10.5" cy="10.5" r="9.5"/></g></g></svg>