<svg xmlns="http://www.w3.org/2000/svg" width="42.002" height="42" viewBox="0 0 42.002 42">
  <g id="icon-not-targeting" transform="translate(-514.697 -467.723)">
    <path id="Path_364" data-name="Path 364" d="M535.7,509.723a21,21,0,1,1,21-21A21.025,21.025,0,0,1,535.7,509.723Zm-12.354-7.006.3.258a18.619,18.619,0,0,0,12.045,4.429h.037a18.661,18.661,0,0,0,14.226-30.739l-.256-.3Zm12.323-32.674a18.661,18.661,0,0,0-14.226,30.739l.256.3,26.354-26.352-.3-.258a18.626,18.626,0,0,0-12.045-4.431Z" fill="#9bb9c6" fill-rule="evenodd"/>
  </g>
</svg>
