<svg xmlns="http://www.w3.org/2000/svg" width="45.95" height="49" viewBox="0 0 45.95 49">
  <path id="icon-canada-leaf" d="M32.642,42.037c-.813.2-10.776,1.83-10.776,1.83A17.356,17.356,0,0,0,23.086,40c0-1.423-2.846-3.253-6.1-6.1S11.7,29.635,11.7,29.432s2.237-.2,2.237-1.83S11.7,19.672,11.7,19.672,16.173,21.3,17.393,21.3s3.05-2.44,3.05-4.066c0,0,5.9,7.32,7.116,6.71S25.322,9.1,25.322,9.1s3.456,3.05,4.676,2.846C31.015,11.539,34.472,3,34.472,3h.2l.2.2s3.456,8.539,4.473,8.946c1.22.407,4.676-2.846,4.676-2.846s-3.456,14.232-2.237,14.842c1.22.407,7.116-6.913,7.116-6.913,0,1.83,1.83,4.066,3.05,4.066s5.693-1.627,5.693-1.627-2.237,6.1-2.237,7.929c0,1.627,2.237,1.627,2.237,1.83s-2.237,1.627-5.286,4.473c-3.253,2.846-6.1,4.676-6.1,6.1a17.356,17.356,0,0,0,1.22,3.863s-9.759-1.627-10.776-1.83c-.813-.2-1.627-.2-1.627,1.627L35.488,52h-1.83l.407-8.336C34.065,41.834,33.455,41.834,32.642,42.037Z" transform="translate(-11.7 -3)" fill="#fff"/>
</svg>
