<svg id="icon-industry-agnostic" xmlns="http://www.w3.org/2000/svg" width="52" height="52" viewBox="0 0 52 52">
  <g id="Group_120" data-name="Group 120" transform="translate(0 17.333)">
    <g id="Group_119" data-name="Group 119">
      <path id="Path_191" data-name="Path 191" d="M32.067,173h-.953a.853.853,0,0,1-.8-.56c-.106-.277-.219-.549-.341-.817a.855.855,0,0,1,.173-.967l.679-.68a2.606,2.606,0,0,0,0-3.674l-2.449-2.449a2.606,2.606,0,0,0-3.675,0l-.679.679a.858.858,0,0,1-.967.173c-.269-.122-.54-.236-.818-.347a.852.852,0,0,1-.562-.8V162.6a2.6,2.6,0,0,0-2.6-2.6H15.6a2.6,2.6,0,0,0-2.6,2.6v.953a.853.853,0,0,1-.56.8c-.277.106-.549.219-.817.341a.857.857,0,0,1-.967-.173l-.68-.679a2.606,2.606,0,0,0-3.674,0L3.852,166.3a2.606,2.606,0,0,0,0,3.675l.679.679a.855.855,0,0,1,.173.967c-.122.269-.236.54-.342.818a.852.852,0,0,1-.809.559H2.6A2.6,2.6,0,0,0,0,175.6v3.467a2.6,2.6,0,0,0,2.6,2.6h.953a.853.853,0,0,1,.8.56c.106.277.219.549.341.817a.855.855,0,0,1-.173.967l-.679.68a2.606,2.606,0,0,0,0,3.674l2.449,2.449a2.606,2.606,0,0,0,3.675,0l.679-.679a.858.858,0,0,1,.967-.173c.269.122.54.236.818.347a.852.852,0,0,1,.567.8v.953a2.6,2.6,0,0,0,2.6,2.6h3.467a2.6,2.6,0,0,0,2.6-2.6v-.953a.853.853,0,0,1,.56-.8c.277-.106.549-.219.817-.341a.857.857,0,0,1,.967.173l.68.679a2.607,2.607,0,0,0,3.674,0l2.449-2.449a2.606,2.606,0,0,0,0-3.675l-.679-.679a.855.855,0,0,1-.173-.967c.122-.269.236-.54.347-.818a.852.852,0,0,1,.8-.562h.953a2.6,2.6,0,0,0,2.6-2.6V175.6A2.6,2.6,0,0,0,32.067,173Zm.867,6.067a.867.867,0,0,1-.867.867h-.953a2.609,2.609,0,0,0-2.427,1.676q-.138.364-.3.717a2.608,2.608,0,0,0,.52,2.909l.678.679a.867.867,0,0,1,0,1.226h0l-2.449,2.449a.867.867,0,0,1-1.225,0l-.679-.679a2.605,2.605,0,0,0-2.909-.52c-.235.107-.474.206-.715.3a2.608,2.608,0,0,0-1.675,2.425v.953a.867.867,0,0,1-.867.867H15.6a.867.867,0,0,1-.867-.867v-.953a2.609,2.609,0,0,0-1.676-2.427q-.364-.138-.717-.3a2.609,2.609,0,0,0-2.909.52l-.679.678a.867.867,0,0,1-1.226,0h0L5.078,187.14a.867.867,0,0,1,0-1.226l.679-.679a2.608,2.608,0,0,0,.52-2.909c-.107-.235-.206-.474-.3-.715a2.608,2.608,0,0,0-2.425-1.678H2.6a.867.867,0,0,1-.867-.867V175.6a.867.867,0,0,1,.867-.867h.953a2.609,2.609,0,0,0,2.427-1.676q.138-.364.3-.717a2.608,2.608,0,0,0-.52-2.909l-.681-.679a.867.867,0,0,1,0-1.226h0l2.449-2.449a.867.867,0,0,1,1.225,0l.679.679a2.605,2.605,0,0,0,2.909.52c.235-.107.474-.206.715-.3a2.608,2.608,0,0,0,1.679-2.425V162.6a.867.867,0,0,1,.867-.867h3.467a.867.867,0,0,1,.867.867v.953a2.609,2.609,0,0,0,1.676,2.427q.364.138.717.3a2.605,2.605,0,0,0,2.909-.52l.679-.678a.872.872,0,0,1,1.226,0l2.449,2.449a.867.867,0,0,1,0,1.225l-.679.679a2.608,2.608,0,0,0-.52,2.909c.107.235.206.474.3.715a2.608,2.608,0,0,0,2.425,1.675h.953a.867.867,0,0,1,.867.867v3.467Z" transform="translate(0 -160)" fill="#9bb9c6"/>
    </g>
  </g>
  <g id="Group_122" data-name="Group 122" transform="translate(9.529 26.867)">
    <g id="Group_121" data-name="Group 121">
      <path id="Path_192" data-name="Path 192" d="M103.546,255.453c-.009-.208-.023-.415-.049-.621-.028-.222-.061-.442-.107-.658-.03-.141-.07-.281-.108-.421q-.073-.268-.164-.528-.064-.181-.132-.359a7.7,7.7,0,0,0-.382-.811c-.011-.02-.018-.042-.03-.062a7.68,7.68,0,0,0-.78-1.136c-.025-.031-.054-.061-.08-.091-.12-.141-.243-.278-.372-.409-.068-.07-.139-.136-.21-.2-.087-.081-.173-.16-.26-.237q-.158-.137-.322-.265l-.142-.106A7.745,7.745,0,0,0,95.763,248c-.087,0-.173.013-.26.016-.185.005-.37.016-.556.035-.1.011-.2.022-.295.036a7.953,7.953,0,0,0-.84.157,7.8,7.8,0,0,0,.006,15.114.2.2,0,0,1,.043.008,8.3,8.3,0,0,0,.908.173c.2.025.4.03.607.04.135.007.26.027.4.027.247,0,.5-.017.765-.043a.838.838,0,0,0,.087-.011c.211-.023.424-.055.641-.1.087-.016.167-.038.25-.057.153-.035.3-.073.46-.119.121-.037.239-.079.358-.121s.242-.087.365-.133.226-.1.338-.152c.146-.067.29-.133.433-.211h.005a10.259,10.259,0,0,0,2.221-1.6,2.727,2.727,0,0,0,.465-.568,9.253,9.253,0,0,0,1.305-3.562c.024-.167.046-.334.059-.505s.021-.313.024-.469c0-.049.007-.1.007-.146C103.563,255.684,103.551,255.571,103.546,255.453Zm-1.727.568c0,.072-.006.144-.01.215-.016.21-.042.419-.078.63a6.08,6.08,0,0,1-3.045,4.247c-.107.056-.213.109-.319.158l-.072.035a6.264,6.264,0,0,1-1.581.479l-.116.018c-.108.016-.215.029-.321.038-.14.012-.28.019-.423.022h-.181a6.116,6.116,0,0,1-.614-.038l-.1-.012a6.461,6.461,0,0,1-.708-.133,6.067,6.067,0,0,1-.006-11.753h0a6.278,6.278,0,0,1,1.523-.191,6,6,0,0,1,.741.05c.066.008.131.02.2.029.187.03.373.067.556.114.06.016.12.029.179.046a6.124,6.124,0,0,1,1.322.556c.067.039.132.08.2.12.137.087.27.173.4.272.07.051.141.1.209.156a6.249,6.249,0,0,1,.488.433c.062.062.118.131.178.2.1.108.2.219.289.336.064.081.126.164.186.248.087.125.173.255.251.387l.131.216a5.952,5.952,0,0,1,.3.635c.035.087.064.173.1.26.056.16.1.321.147.484.022.087.046.164.064.248a6.1,6.1,0,0,1,.11.71c.005.063.005.127.01.191C101.823,255.62,101.826,255.82,101.818,256.021Z" transform="translate(-87.958 -248)" fill="#9bb9c6"/>
    </g>
  </g>
  <g id="Group_124" data-name="Group 124" transform="translate(9.453)">
    <g id="Group_123" data-name="Group 123">
      <path id="Path_193" data-name="Path 193" d="M127.208,18.2h-2.726a.846.846,0,0,1-.808-.569,18.049,18.049,0,0,0-.973-2.35.849.849,0,0,1,.166-.978l1.933-1.935a2.6,2.6,0,0,0,0-3.676l-3.685-3.679a2.6,2.6,0,0,0-3.676,0l-1.932,1.931a.848.848,0,0,1-.978.167,18,18,0,0,0-2.35-.978.846.846,0,0,1-.572-.808V2.6a2.6,2.6,0,0,0-2.6-2.6h-5.2a2.6,2.6,0,0,0-2.6,2.6V5.326a.846.846,0,0,1-.569.808,18.06,18.06,0,0,0-2.35.978.847.847,0,0,1-.978-.166L95.376,5.012a2.605,2.605,0,0,0-3.676,0L88.022,8.69a2.6,2.6,0,0,0,0,3.676l2.842,2.847a.867.867,0,0,0,1.227-1.224l-2.844-2.846a.867.867,0,0,1,0-1.225L92.926,6.24a.867.867,0,0,1,1.225,0l1.936,1.933a2.577,2.577,0,0,0,2.978.489,16.4,16.4,0,0,1,2.124-.883,2.578,2.578,0,0,0,1.752-2.453V2.6a.867.867,0,0,1,.867-.867h5.2a.867.867,0,0,1,.867.867V5.326a2.577,2.577,0,0,0,1.752,2.452,16.348,16.348,0,0,1,2.125.884,2.583,2.583,0,0,0,2.977-.49l1.936-1.932a.867.867,0,0,1,1.225,0l3.678,3.679a.867.867,0,0,1,0,1.225l-1.933,1.936a2.579,2.579,0,0,0-.489,2.978,16.4,16.4,0,0,1,.883,2.124,2.577,2.577,0,0,0,2.453,1.752h2.726a.867.867,0,0,1,.867.867V26a.867.867,0,0,1-.867.867h-2.726a2.577,2.577,0,0,0-2.452,1.752,16.324,16.324,0,0,1-.884,2.125,2.58,2.58,0,0,0,.49,2.977l1.933,1.936a.867.867,0,0,1,0,1.225l-3.68,3.678a.867.867,0,0,1-1.225,0l-2.848-2.842a.867.867,0,0,0-1.245,1.206l.021.021,2.847,2.842a2.6,2.6,0,0,0,3.676,0l3.678-3.677a2.6,2.6,0,0,0,0-3.676l-1.93-1.934a.849.849,0,0,1-.167-.978,18,18,0,0,0,.978-2.35.846.846,0,0,1,.808-.572h2.726a2.6,2.6,0,0,0,2.6-2.6V20.8A2.6,2.6,0,0,0,127.208,18.2Z" transform="translate(-87.261 0)" fill="#9bb9c6"/>
    </g>
  </g>
  <g id="Group_126" data-name="Group 126" transform="translate(20.39 12.139)">
    <g id="Group_125" data-name="Group 125">
      <path id="Path_194" data-name="Path 194" d="M204.395,115.344a11.278,11.278,0,0,0-15.933,0,.867.867,0,0,0,1.225,1.225,9.533,9.533,0,0,1,13.572,13.392l-.09.09a.867.867,0,1,0,1.2,1.247l.021-.021A11.278,11.278,0,0,0,204.395,115.344Z" transform="translate(-188.219 -112.049)" fill="#9bb9c6"/>
    </g>
  </g>
</svg>
