<svg xmlns="http://www.w3.org/2000/svg" width="38.499" height="48" viewBox="0 0 38.499 48">
  <g id="icon-defensible-advantage" transform="translate(-175.165 -359.69)">
    <g id="Group_238" data-name="Group 238" transform="translate(175.165 359.69)">
      <path id="Path_354" data-name="Path 354" d="M183.221,407.69a3.141,3.141,0,0,1-3.14-3.138v-.288a3.157,3.157,0,0,1,1.8-2.837l.264-.124-.029-.288c-.192-1.875-.082-6.781,4.988-11.853a6.941,6.941,0,0,0,2.085-5.225l.014-.46-.457.035c-.225.018-.8.039-.8.039l-6.812,4.543a.829.829,0,0,1-1.043-.1l-4.679-4.681a.821.821,0,0,1-.117-1.024l11.7-18.718a.827.827,0,0,1,.4-.33l7.992-3.48a.821.821,0,0,1,.33-.068,20.18,20.18,0,0,1,8.2,2.044c3.777,1.889,8.281,5.93,8.281,14.437,0,7.287-.084,13.438-.087,13.506a.828.828,0,0,1-.826.816h-4.613l-.008.406a15.854,15.854,0,0,0,2.749,10.04l.122.185h1a3.143,3.143,0,0,1,3.14,3.14v.288a3.143,3.143,0,0,1-3.14,3.138Zm0-4.914a1.489,1.489,0,0,0-1.488,1.486v.288a1.49,1.49,0,0,0,1.488,1.488h27.3a1.488,1.488,0,0,0,1.486-1.488v-.288a1.487,1.487,0,0,0-1.486-1.486Zm9.846-13.858a.826.826,0,0,1,.585,1.411c-4.073,4.075-4.6,7.943-4.555,9.886l.01.4h18.137l-.319-.6c-2.318-4.4-2.071-8.058-1.694-13.594.163-2.406.346-5.114.346-8.373,0-4.191-1.288-7.452-3.828-9.694-3.581-3.163-8.864-3.634-11.695-3.634-.7,0-1.277.029-1.669.056l-.21.016-9.313,14.9.15.22a.848.848,0,0,1,.146.47.835.835,0,0,1-.243.585.825.825,0,0,1-.583.241l-.268-.039-.262.218-.76,1.216,3.735,3.735,6.451-4.3a.829.829,0,0,1,.459-.138c2.444,0,4.213-.682,5.262-2.025,1.867-2.388.964-6.268.954-6.307a.829.829,0,0,1,.6-1h.076a.849.849,0,0,1,.927.6c.045.19,1.127,4.675-1.255,7.726a6.508,6.508,0,0,1-3.121,2.157l-.278.093,0,.293a8.825,8.825,0,0,1-2.578,6.9c-4.063,4.065-4.6,7.939-4.555,9.883l.008.4h3.727l-.006-.418c-.037-2.2.569-6.57,5.035-11.037A.807.807,0,0,1,193.067,388.918ZM191.9,363.075l1.5.185a17.157,17.157,0,0,1,9.447,3.851c2.911,2.569,4.389,6.247,4.389,10.934,0,3.338-.187,6.072-.35,8.484l-.148,2.31h3.725l0-.408c.027-2.151.072-6.9.072-12.261,0-6.119-2.454-10.467-7.294-12.92a18.98,18.98,0,0,0-7.271-1.9l-.1-.006Z" transform="translate(-175.165 -359.69)" fill="#9bb9c6" fill-rule="evenodd"/>
    </g>
    <path id="Path_355" data-name="Path 355" d="M182.743,365.981a1.243,1.243,0,0,0-1.741.212l-.54.692a1.24,1.24,0,0,0,1.953,1.527l.54-.692A1.239,1.239,0,0,0,182.743,365.981Z" transform="translate(5.338 6.392)" fill="#9bb9c6" fill-rule="evenodd"/>
  </g>
</svg>
