<svg xmlns="http://www.w3.org/2000/svg" width="48" height="44.193" viewBox="0 0 48 44.193">
  <g id="icon-scale" transform="translate(-514.497 -360.301)">
    <g id="Group_245" data-name="Group 245" transform="translate(522.636 360.301)">
      <path id="Path_360" data-name="Path 360" d="M522.727,397.187a4.131,4.131,0,1,1,.008-8.261,4.067,4.067,0,0,1,1.73.381l.272.127,5.353-6.174-.133-.242A4.13,4.13,0,0,1,532.8,377a4.129,4.129,0,0,1,4.212,1.75l.181.266,7.521-3.026-.141-.571a4.137,4.137,0,0,1,3.27-4.839,4.22,4.22,0,0,1,.79-.075,4.053,4.053,0,0,1,1.262.2l.337.107,3.73-8.279-3.164,1.419a.765.765,0,0,1-.323.069.794.794,0,0,1-.325-1.52l4.744-2.125a.8.8,0,0,1,1.049.4l2.125,4.744a.8.8,0,0,1-.4,1.05.767.767,0,0,1-.323.071.8.8,0,0,1-.726-.47l-1.27-2.835-3.779,8.386.169.193a4.132,4.132,0,0,1-2.317,6.777,4.264,4.264,0,0,1-.794.075,4.107,4.107,0,0,1-2.911-1.206l-.184-.184-7.835,3.154.016.286a4.128,4.128,0,0,1-4.129,4.371,4.117,4.117,0,0,1-2.117-.587l-.286-.173-5.23,6.035.176.252a4.136,4.136,0,0,1-3.4,6.478Zm.008-6.674a2.729,2.729,0,0,0-.49.048,2.54,2.54,0,0,0-1.621,1.073,2.513,2.513,0,0,0-.387,1.907,2.543,2.543,0,0,0,2.49,2.055,2.572,2.572,0,0,0,.49-.048,2.537,2.537,0,0,0,2.006-2.978A2.542,2.542,0,0,0,522.735,390.513Zm10.858-12a2.583,2.583,0,0,0-.49.048,2.541,2.541,0,1,0,2.593,3.914,2.51,2.51,0,0,0,.387-1.907A2.543,2.543,0,0,0,533.593,378.51Zm15.045-6.42a2.541,2.541,0,0,0-.01,5.083,2.694,2.694,0,0,0,.488-.048,2.541,2.541,0,0,0-.478-5.035Z" transform="translate(-518.599 -360.301)" fill="#9bb9c6" fill-rule="evenodd"/>
    </g>
    <path id="Path_361" data-name="Path 361" d="M561.3,399.213H519.441v-36.9a1.192,1.192,0,0,0-2.385,0v36.9h-1.367a1.191,1.191,0,1,0,0,2.383h1.367v.9a1.192,1.192,0,0,0,2.385,0v-.9H561.3a1.191,1.191,0,1,0,0-2.383Z" transform="translate(0 0.803)" fill="#9bb9c6" fill-rule="evenodd"/>
  </g>
</svg>
