<svg xmlns="http://www.w3.org/2000/svg" width="52" height="38.174" viewBox="0 0 52 38.174">
  <g id="icon-team" transform="translate(0 -68.066)">
    <g id="Group_106" data-name="Group 106" transform="translate(39.889 84.355)">
      <g id="Group_105" data-name="Group 105">
        <path id="Path_184" data-name="Path 184" d="M398.74,229.344a14.861,14.861,0,0,0-5.227-.895.762.762,0,0,0,0,1.523,13.154,13.154,0,0,1,4.546.734.762.762,0,0,0,.681-1.363Z" transform="translate(-392.751 -228.449)" fill="#9bb9c6"/>
      </g>
    </g>
    <g id="Group_108" data-name="Group 108" transform="translate(0 68.066)">
      <g id="Group_107" data-name="Group 107">
        <path id="Path_185" data-name="Path 185" d="M49.675,96.095l-3.146-.9a.319.319,0,0,1-.231-.306V93.84a5.722,5.722,0,0,0,.728-.6,5.6,5.6,0,0,0,1.715-4.054V87.74l.3-.608a4.86,4.86,0,0,0,.51-2.162V81.044a.762.762,0,0,0-.762-.762h-7.33a4.839,4.839,0,0,0-4.834,4.834v.045a4.04,4.04,0,0,0,.424,1.8l.39.78v1.244a5.943,5.943,0,0,0,2.443,4.805v1.1c0,.17,0,.24-.629.42l-1.535.439-4.44-1.615a.761.761,0,0,0-.208-.583L31.658,92.06v-2.5c.15-.124.3-.251.441-.385a8.94,8.94,0,0,0,2.817-6.5v-2a8.8,8.8,0,0,0,.814-3.7V68.828a.762.762,0,0,0-.762-.762h-11.4a7.286,7.286,0,0,0-7.277,7.277v1.629a8.8,8.8,0,0,0,.814,3.7v1.72a9.308,9.308,0,0,0,3.258,7.1V92.06L18.942,93.55a.761.761,0,0,0-.208.583l-4.687,1.7a4,4,0,0,0-.942.493l-.736-.368A5.818,5.818,0,0,0,15.289,93.6a.761.761,0,0,0,0-.681,13.532,13.532,0,0,1-.669-4.729c-.018-.538-.035-1.047-.067-1.5a6.626,6.626,0,0,0-6.461-6.409,6.626,6.626,0,0,0-6.461,6.409c-.032.453-.049.962-.067,1.5A13.533,13.533,0,0,1,.895,92.92a.761.761,0,0,0,0,.681,5.817,5.817,0,0,0,2.921,2.36L1.772,96.983A3.189,3.189,0,0,0,0,99.85v5.627a.762.762,0,0,0,1.523,0V99.85a1.673,1.673,0,0,1,.93-1.5L5,97.074l.885.841a3.2,3.2,0,0,0,4.416,0l.885-.841.83.415a4.011,4.011,0,0,0-.613,2.127v5.863a.762.762,0,0,0,1.523,0V99.615a2.5,2.5,0,0,1,1.643-2.346l4.941-1.8,2.057,3.086a1.57,1.57,0,0,0,1.156.694q.079.008.157.008a1.57,1.57,0,0,0,1.113-.462l1.255-1.255v7.934a.762.762,0,0,0,1.523,0V97.544L28.026,98.8a1.569,1.569,0,0,0,1.113.462q.078,0,.157-.008a1.57,1.57,0,0,0,1.156-.694l2.057-3.085,4.941,1.8a2.5,2.5,0,0,1,1.643,2.346v5.863a.762.762,0,1,0,1.523,0V99.616a4.027,4.027,0,0,0-1.127-2.787l.188-.054a4.173,4.173,0,0,0,.709-.256l1.945,1.945v7.015a.762.762,0,1,0,1.523,0V98.464l1.931-1.931a1.811,1.811,0,0,0,.324.129l3.146.9a1.689,1.689,0,0,1,1.22,1.617v6.3a.762.762,0,0,0,1.523,0v-6.3A3.219,3.219,0,0,0,49.675,96.095ZM4.887,94.749A5.476,5.476,0,0,1,2.442,93.18a8.4,8.4,0,0,0,.434-1.824,5.68,5.68,0,0,0,2.01,2.48ZM9.25,96.811a1.681,1.681,0,0,1-2.317,0l-.708-.673a1.576,1.576,0,0,0,.185-.744v-.812a5.664,5.664,0,0,0,3.363,0v.811a1.576,1.576,0,0,0,.185.744Zm-1.158-3.5a4.13,4.13,0,0,1-4.125-4.125.757.757,0,0,0-.887-.751c0-.066,0-.131.007-.2.017-.524.033-1.018.063-1.443a5.655,5.655,0,0,1,1.54-3.551,4.733,4.733,0,0,1,6.8,0,5.655,5.655,0,0,1,1.54,3.551c.03.424.047.919.064,1.443l0,.136a6.844,6.844,0,0,0-3.762-2.749,9.559,9.559,0,0,0-2.9-.459.762.762,0,0,0-.527.233L4.54,86.828a.762.762,0,0,0,1.1,1.057L6.781,86.7c.985.048,4.153.417,5.386,3.13A4.115,4.115,0,0,1,8.092,93.314Zm3.2,1.438v-.908a5.634,5.634,0,0,0,2.011-2.483,8.386,8.386,0,0,0,.434,1.82A5.5,5.5,0,0,1,11.3,94.752Zm7.33-12.358V80.5a.762.762,0,0,0-.076-.331,7.306,7.306,0,0,1-.739-3.2V75.343a5.76,5.76,0,0,1,5.754-5.754H34.207v7.383a7.306,7.306,0,0,1-.739,3.2.762.762,0,0,0-.076.331v2.169a7.313,7.313,0,0,1-2.335,5.388,7.574,7.574,0,0,1-.585.5l-.013.01a7.324,7.324,0,0,1-4.943,1.475A7.545,7.545,0,0,1,18.627,82.394Zm4.289,15.327a.048.048,0,0,1-.042.015.048.048,0,0,1-.039-.023L20.466,94.16l.762-.8,3.594,2.457Zm3.094-2.94-4.125-2.82V90.54a8.577,8.577,0,0,0,3.533,1.02q.3.019.6.019a8.823,8.823,0,0,0,4.117-1.009v1.391Zm3.175,2.932a.048.048,0,0,1-.039.023.047.047,0,0,1-.042-.015L27.2,95.815l3.594-2.457.762.8Zm13.909-.643-1.729-1.728a2.089,2.089,0,0,0,.047-.452v-.321a5.34,5.34,0,0,0,1.508.267l.175,0a5.657,5.657,0,0,0,1.679-.254v.307a1.822,1.822,0,0,0,.055.444Zm2.872-4.921a4.094,4.094,0,0,1-3,1.162,4.264,4.264,0,0,1-4-4.328V87.56a.761.761,0,0,0-.08-.341l-.471-.941a2.509,2.509,0,0,1-.263-1.116v-.045a3.314,3.314,0,0,1,3.311-3.311h6.568V84.97a3.328,3.328,0,0,1-.349,1.481l-.385.769a.761.761,0,0,0-.08.341v1.629A4.092,4.092,0,0,1,45.966,92.149Z" transform="translate(0 -68.066)" fill="#9bb9c6"/>
      </g>
    </g>
    <g id="Group_110" data-name="Group 110" transform="translate(47.219 99.829)">
      <g id="Group_109" data-name="Group 109">
        <path id="Path_186" data-name="Path 186" d="M465.685,380.814a.762.762,0,0,0-.762.762v4.887a.762.762,0,1,0,1.523,0v-4.887A.762.762,0,0,0,465.685,380.814Z" transform="translate(-464.923 -380.814)" fill="#9bb9c6"/>
      </g>
    </g>
    <g id="Group_112" data-name="Group 112" transform="translate(3.258 100.836)">
      <g id="Group_111" data-name="Group 111">
        <path id="Path_187" data-name="Path 187" d="M32.839,390.728a.762.762,0,0,0-.762.762v3.88a.762.762,0,1,0,1.523,0v-3.88A.762.762,0,0,0,32.839,390.728Z" transform="translate(-32.077 -390.728)" fill="#9bb9c6"/>
      </g>
    </g>
    <g id="Group_114" data-name="Group 114" transform="translate(19.547 74.986)">
      <g id="Group_113" data-name="Group 113">
        <path id="Path_188" data-name="Path 188" d="M205.163,138.465c-2.881-2.881-8.909-2.33-11.367-1.96a1.564,1.564,0,0,0-1.336,1.558v1.755a.762.762,0,0,0,1.523,0v-1.755a.05.05,0,0,1,.04-.052,24.073,24.073,0,0,1,4.949-.242c2.375.158,4.1.754,5.114,1.772a.762.762,0,0,0,1.077-1.077Z" transform="translate(-192.46 -136.203)" fill="#9bb9c6"/>
      </g>
    </g>
    <g id="Group_116" data-name="Group 116" transform="translate(16.289 101.458)">
      <g id="Group_115" data-name="Group 115">
        <path id="Path_189" data-name="Path 189" d="M161.146,396.853a.762.762,0,0,0-.762.762v3.258a.762.762,0,0,0,1.523,0v-3.258A.762.762,0,0,0,161.146,396.853Z" transform="translate(-160.384 -396.853)" fill="#9bb9c6"/>
      </g>
    </g>
    <g id="Group_118" data-name="Group 118" transform="translate(34.207 101.458)">
      <g id="Group_117" data-name="Group 117">
        <path id="Path_190" data-name="Path 190" d="M337.568,396.853a.762.762,0,0,0-.762.762v3.258a.762.762,0,0,0,1.523,0v-3.258A.762.762,0,0,0,337.568,396.853Z" transform="translate(-336.806 -396.853)" fill="#9bb9c6"/>
      </g>
    </g>
  </g>
</svg>
