<svg xmlns="http://www.w3.org/2000/svg" width="149.111" height="32"><g data-name="Group 1" fill="#fff"><path data-name="Path 1" d="M121.399 32l18.475-32 9.238 16-9.238 16z"/><path data-name="Path 2" d="M121.399 0l18.475 32 9.238-16-9.238-16z"/><path data-name="Path 3" d="M128.279 20.084L130.637 16l9.238 16z"/></g><g data-name="Group 2" fill="#00202c"><path data-name="Path 4" d="M7.161 3.531a10.283 10.283 0 012.418.267 11.831 11.831 0 011.7.518l-.911 3.738a6.148 6.148 0 00-1.37-.424 7.309 7.309 0 00-1.366-.141 3.818 3.818 0 00-1.43.235 2.2 2.2 0 00-.91.644 2.488 2.488 0 00-.472.974 5.052 5.052 0 00-.141 1.225v.817h5.779v3.895H4.68v12.625H-.002v-17.4a7.046 7.046 0 011.806-5.088 7.083 7.083 0 015.357-1.885z"/><path data-name="Path 5" d="M28.456 19.612a10.738 10.738 0 01-.566 3.565 7.732 7.732 0 01-1.633 2.764 7.344 7.344 0 01-2.56 1.775 8.544 8.544 0 01-3.345.628 8.455 8.455 0 01-3.313-.628 7.334 7.334 0 01-2.56-1.775 8.1 8.1 0 01-1.665-2.764 10.227 10.227 0 01-.6-3.565 9.862 9.862 0 01.613-3.549 8.054 8.054 0 011.7-2.733 7.629 7.629 0 012.575-1.759 8.292 8.292 0 013.251-.628 8.378 8.378 0 013.282.628 7.471 7.471 0 012.56 1.759 8 8 0 011.664 2.733 10.111 10.111 0 01.597 3.549zm-4.774 0a5.887 5.887 0 00-.864-3.408 2.826 2.826 0 00-2.466-1.24 2.865 2.865 0 00-2.481 1.24 5.805 5.805 0 00-.879 3.408 5.955 5.955 0 00.879 3.439 2.842 2.842 0 002.481 1.272 2.8 2.8 0 002.466-1.272 6.039 6.039 0 00.865-3.439z"/><path data-name="Path 6" d="M42.024 15.529q-.628-.157-1.476-.33a9.145 9.145 0 00-1.821-.173 8.546 8.546 0 00-1.052.078 6.235 6.235 0 00-.926.173v12.627h-4.68V12.262a28.16 28.16 0 012.968-.832 17.1 17.1 0 013.816-.393c.252 0 .554.016.911.047s.711.074 1.068.126.711.115 1.068.189a5.073 5.073 0 01.911.267z"/><path data-name="Path 7" d="M56.362 18.419q-.629 2.387-1.335 4.742t-1.492 4.744h-3.643q-.566-1.32-1.228-3.141t-1.371-3.973q-.708-2.15-1.449-4.554t-1.433-4.853h4.931l.553 2.466q.3 1.335.632 2.748.332 1.413.7 2.843t.742 2.748q.408-1.382.8-2.827t.754-2.842q.361-1.4.691-2.7t.581-2.434h3.393q.251 1.131.565 2.434t.66 2.7q.345 1.4.723 2.842t.785 2.827q.379-1.319.758-2.748t.711-2.843q.331-1.413.632-2.748t.553-2.466h4.868q-.694 2.45-1.434 4.853t-1.449 4.554q-.709 2.152-1.386 3.973t-1.248 3.141h-3.643q-.786-2.387-1.539-4.743t-1.382-4.743z"/><path data-name="Path 8" d="M76.542 10.943a10.84 10.84 0 013.455.471 5.366 5.366 0 012.214 1.351 4.971 4.971 0 011.178 2.135 10.567 10.567 0 01.345 2.8v9.73q-1.005.22-2.8.518a26.94 26.94 0 01-4.334.3 13.772 13.772 0 01-2.905-.283 6.316 6.316 0 01-2.246-.926 4.243 4.243 0 01-1.445-1.681 5.8 5.8 0 01-.5-2.544 4.818 4.818 0 01.581-2.449 4.474 4.474 0 011.555-1.6 7.032 7.032 0 012.23-.864 12.552 12.552 0 012.607-.267 14.961 14.961 0 011.618.078 7.341 7.341 0 011.146.2v-.44a2.593 2.593 0 00-.723-1.916 3.5 3.5 0 00-2.513-.722 16.03 16.03 0 00-2.355.173 10.158 10.158 0 00-2.01.487l-.6-3.769q.408-.125 1.02-.267t1.335-.252q.723-.109 1.523-.188t1.624-.075zm.377 13.694q.691 0 1.319-.031a9.1 9.1 0 001.006-.095v-3.549q-.284-.063-.848-.126a9.5 9.5 0 00-1.037-.062 9.271 9.271 0 00-1.24.078 3.245 3.245 0 00-1.021.3 1.751 1.751 0 00-.691.6 1.662 1.662 0 00-.251.942 1.6 1.6 0 00.738 1.524 4.078 4.078 0 002.024.419z"/><path data-name="Path 9" d="M97.931 15.529q-.629-.157-1.476-.33a9.15 9.15 0 00-1.822-.173 8.554 8.554 0 00-1.052.078 6.223 6.223 0 00-.926.173v12.627h-4.68V12.262a28.2 28.2 0 012.968-.832 17.1 17.1 0 013.814-.391q.377 0 .911.047t1.068.126q.534.079 1.068.189a5.067 5.067 0 01.911.267z"/><path data-name="Path 10" d="M115.488 27.37q-.628.188-1.445.361t-1.712.3q-.9.125-1.822.2t-1.775.079a10.392 10.392 0 01-3.643-.6 7.31 7.31 0 01-2.7-1.712 7.41 7.41 0 01-1.68-2.7 10.3 10.3 0 01-.581-3.564 12.192 12.192 0 01.5-3.628 7.9 7.9 0 011.445-2.748 6.184 6.184 0 012.309-1.727 7.745 7.745 0 013.125-.6 7.329 7.329 0 011.743.189 9.427 9.427 0 011.555.534V4.285l4.68-.754zm-10.585-7.852a5.727 5.727 0 00.974 3.486 3.36 3.36 0 002.889 1.319q.628 0 1.162-.047t.88-.11v-8.511a4.062 4.062 0 00-1.146-.471 5.528 5.528 0 00-1.43-.189q-3.329 0-3.329 4.523z"/></g><path data-name="Path 1" d="M121.398 32l18.475-32 9.238 16-9.238 16z" fill="#fc9600"/><path data-name="Path 2" d="M121.398 0l18.475 32 9.238-16-9.238-16z" fill="#00202c"/><path data-name="Path 3" d="M128.279 20.084L130.637 16l9.238 16z" fill="#7d827f"/></svg>