<svg version="1.1" id="Layer_1" xmlns="http://www.w3.org/2000/svg" x="0" y="0" width="52" height="52" xml:space="preserve"><style>.st0{fill-rule:evenodd;clip-rule:evenodd;fill:#9bb9c6}</style><g id="icon-scale" transform="translate(-514.497 -360.301)"><g id="Group_245" transform="translate(522.636 360.301)"><path id="Path_360" class="st0" d="M6.1 40.8c-2.3 0-4.2-1.8-4.2-4.1s1.8-4.2 4.1-4.2h.1c.6 0 1.2.1 1.7.4l.3.1 5.4-6.2-.1-.2c-1.1-2-.3-4.5 1.7-5.6.4-.2.8-.3 1.2-.4 1.6-.3 3.3.4 4.2 1.8l.2.3 7.5-3-.2-.7c-.4-2.2 1-4.4 3.3-4.8.3 0 .5-.1.8-.1.4 0 .9.1 1.3.2l.3.1 3.7-8.3-3.2 1.4c-.1 0-.2.1-.3.1-.4 0-.8-.4-.8-.8 0-.3.2-.6.5-.7L38.3 4c.4-.2.9 0 1 .4l2.1 4.7c.2.4 0 .9-.4 1-.1 0-.2.1-.3.1-.3 0-.6-.2-.7-.5l-1.3-2.8-3.7 8.4.2.2c1.5 1.7 1.3 4.3-.4 5.8-.5.5-1.2.8-1.9.9-.3 0-.5.1-.8.1-1.1 0-2.1-.4-2.9-1.2l-.3-.1-7.8 3.2v.3c.1 2.3-1.6 4.2-3.9 4.4h-.3c-.7 0-1.5-.2-2.1-.6l-.2-.3-5.2 6 .2.3c1.3 1.9.8 4.5-1.1 5.8-.7.4-1.5.7-2.4.7zm0-6.7h-.5c-.6.2-1.2.6-1.6 1.1-.4.6-.5 1.2-.4 1.9.2 1.2 1.3 2.1 2.5 2.1h.5c1.4-.3 2.3-1.6 2-3-.2-1.2-1.2-2.1-2.5-2.1zm10.9-12h-.5c-1.4.3-2.3 1.6-2 3s1.6 2.3 3 2c.7-.1 1.2-.5 1.6-1.1.4-.6.5-1.2.4-1.9-.2-1.1-1.3-2-2.5-2zm15-6.4c-1.4 0-2.5 1.1-2.5 2.5s1.1 2.5 2.5 2.5h.5c1.4-.3 2.3-1.6 2-3-.2-1.1-1.2-2-2.5-2z"/></g><path id="Path_361" class="st0" d="M563.3 403.9h-41.9V367c0-.7-.5-1.2-1.2-1.2s-1.2.5-1.2 1.2v36.9h-1.4c-.7 0-1.2.5-1.2 1.2s.5 1.2 1.2 1.2h1.4v.9c0 .7.5 1.2 1.2 1.2s1.2-.5 1.2-1.2v-.9h41.9c.7 0 1.2-.5 1.2-1.2s-.5-1.2-1.2-1.2z"/></g></svg>