<svg xmlns="http://www.w3.org/2000/svg" width="52" height="52"><path d="M24 40.5c-.8.2-10.8 1.8-10.8 1.8.6-1.2 1-2.5 1.2-3.9 0-1.4-2.8-3.3-6.1-6.1S3 28.1 3 27.9s2.2-.2 2.2-1.8S3 18.2 3 18.2s4.5 1.6 5.7 1.6 3-2.4 3-4.1c0 0 5.9 7.3 7.1 6.7S16.6 7.6 16.6 7.6s3.5 3.1 4.7 2.8c1-.4 4.5-8.9 4.5-8.9h.2l.2.2s3.5 8.5 4.5 8.9c1.2.4 4.7-2.8 4.7-2.8S31.9 22 33.1 22.6c1.2.4 7.1-6.9 7.1-6.9 0 1.8 1.8 4.1 3 4.1s5.7-1.6 5.7-1.6-2.2 6.1-2.2 7.9c0 1.6 2.2 1.6 2.2 1.8s-2.2 1.6-5.3 4.5c-3.3 2.8-6.1 4.7-6.1 6.1.3 1.3.7 2.6 1.2 3.9 0 0-9.8-1.6-10.8-1.8-.8-.2-1.6-.2-1.6 1.6l.4 8.3H25l.4-8.3c0-1.9-.6-1.9-1.4-1.7z" fill="#eb6514"/></svg>