<svg version="1.1" id="Layer_1" xmlns="http://www.w3.org/2000/svg" x="0" y="0" width="52" height="52" xml:space="preserve"><style>.st0{fill-rule:evenodd;clip-rule:evenodd;fill:#9bb9c6}</style><g id="icon-defensible-advantage" transform="translate(-175.165 -359.69)"><g id="Group_238" transform="translate(175.165 359.69)"><path id="Path_354" class="st0" d="M14.8 50c-1.7 0-3.1-1.4-3.1-3.1v-.3c0-1.2.7-2.3 1.8-2.8l.3-.1v-.3c-.2-1.9-.1-6.8 5-11.9 1.4-1.4 2.2-3.3 2.1-5.2v-.5h-1.3l-6.8 4.5c-.3.2-.8.2-1-.1L7 25.6c-.3-.3-.3-.7-.1-1L18.6 5.9c.1-.2.2-.3.4-.3l8-3.5c.1-.1.2-.1.3-.1 2.8.1 5.6.8 8.2 2 3.8 1.9 8.3 5.9 8.3 14.4 0 7.3-.1 13.4-.1 13.5 0 .5-.4.8-.8.8h-4.6v.4c-.2 3.6.7 7.1 2.7 10l.1.2h1c1.7 0 3.1 1.4 3.1 3.1v.3c0 1.7-1.4 3.1-3.1 3.1l-27.3.2zm0-4.9c-.8 0-1.5.7-1.5 1.5v.3c0 .8.7 1.5 1.5 1.5h27.3c.8 0 1.5-.7 1.5-1.5v-.3c0-.8-.7-1.5-1.5-1.5H14.8zm9.9-13.9c.5 0 .8.4.8.8 0 .2-.1.4-.2.6-4.1 4.1-4.6 7.9-4.6 9.9v.4h18.1l-.3-.6c-2.3-4.4-2.1-8.1-1.7-13.6.2-2.4.3-5.1.3-8.4 0-4.2-1.3-7.5-3.8-9.7C29.8 7.5 24.5 7 21.6 7c-.7 0-1.3 0-1.7.1h-.2L10.4 22l.1.2c.1.1.1.3.1.5s-.1.4-.2.6c-.2.2-.4.2-.6.2h-.3l-.3.2-.8 1.2 3.7 3.7 6.5-4.3c.1-.1.3-.1.5-.1 2.4 0 4.2-.7 5.3-2 1.9-2.4 1-6.3 1-6.3-.1-.4.2-.9.6-1h.1c.4-.1.8.2.9.6 0 .2 1.1 4.7-1.3 7.7-.8 1-1.9 1.8-3.1 2.2l-.3.1v.3c.2 2.6-.8 5.1-2.6 6.9-4.1 4.1-4.6 7.9-4.6 9.9v.4H19v-.4c0-2.2.6-6.6 5-11 .2-.3.4-.4.7-.4zM23.5 5.4l1.5.2c3.5.3 6.8 1.6 9.4 3.9 2.9 2.6 4.4 6.2 4.4 10.9 0 3.3-.2 6.1-.4 8.5l-.1 2.3H42v-.4c0-2.2.1-6.9.1-12.3 0-6.1-2.5-10.5-7.3-12.9-2.3-1.1-4.7-1.8-7.3-1.9h-.1l-3.9 1.7z"/></g><path id="Path_355" class="st0" d="M194.8 374.4c-.5-.4-1.3-.3-1.7.2l-.5.7c-.4.6-.3 1.3.3 1.7.5.4 1.3.3 1.7-.2l.5-.7c.4-.5.3-1.3-.3-1.7z"/></g></svg>