<svg version="1.1" id="Layer_1" xmlns="http://www.w3.org/2000/svg" x="0" y="0" width="52" height="52" xml:space="preserve"><style>.st0{fill:#9bb9c6}</style><g id="icon-team" transform="translate(0 -68.066)"><g id="Group_106" transform="translate(39.889 84.355)"><g id="Group_105"><path id="Path_184" class="st0" d="M6 7.8c-1.7-.6-3.5-.9-5.2-.9-.5 0-.8.4-.8.8s.3.7.7.7c1.5 0 3.1.2 4.5.7.4.2.8 0 1-.4.3-.3.2-.7-.2-.9z"/></g></g><g id="Group_108" transform="translate(0 68.066)"><g id="Group_107"><path id="Path_185" class="st0" d="M49.7 34.9l-3.2-.9c-.1 0-.2-.2-.2-.3v-1c.3-.2.5-.4.7-.6 1.1-1.1 1.7-2.5 1.7-4.1v-1.4l.3-.6c.3-.7.5-1.4.5-2.2v-3.9c0-.4-.3-.8-.8-.8h-7.3c-2.7 0-4.8 2.2-4.8 4.8 0 .6.1 1.2.4 1.8l.4.8v1.2c0 1.9.9 3.7 2.4 4.8v1.1c0 .2 0 .2-.6.4l-1.5.4-4.4-1.4c0-.2-.1-.4-.2-.6l-1.4-1.5v-2.5l.4-.4c1.8-1.7 2.8-4 2.8-6.5v-2c.5-1.2.8-2.4.8-3.7V7.7c0-.4-.3-.8-.8-.8H23.6c-4 0-7.3 3.3-7.3 7.3v1.6c0 1.3.3 2.5.8 3.7v1.7c0 2.7 1.2 5.3 3.3 7.1v2.6L19 32.4c-.1.2-.2.4-.2.6L14 34.7c-.3.1-.7.3-.9.5l-.7-.4c1.2-.4 2.2-1.3 2.9-2.4.1-.2.1-.5 0-.7-.5-1.5-.7-3.1-.7-4.7 0-.5 0-1-.1-1.5-.1-3.5-2.9-6.3-6.5-6.4-3.5.1-6.3 2.9-6.5 6.4 0 .5 0 1-.1 1.5.1 1.6-.2 3.2-.7 4.7-.1.2-.1.5 0 .7.7 1.1 1.7 1.9 2.9 2.4l-2 1c-.9.6-1.6 1.7-1.6 2.9v5.6c0 .4.4.7.8.7s.7-.3.7-.7v-5.6c0-.6.4-1.2.9-1.5L5 35.9l.9.8c1.2 1.2 3.2 1.2 4.4 0l.9-.8.8.4c-.4.6-.6 1.4-.6 2.1v5.9c0 .4.4.7.8.7s.7-.3.7-.7v-5.9c0-1 .7-2 1.6-2.3l4.9-1.8 2.1 3.1c.3.4.7.6 1.2.7h.2c.4 0 .8-.2 1.1-.5l1.3-1.3v7.9c0 .4.4.7.8.7s.7-.3.7-.7v-7.9l1.3 1.3c.3.3.7.5 1.1.5h.2c.5 0 .9-.3 1.2-.7l2.1-3.1 4.9 1.8c1 .4 1.6 1.3 1.6 2.3v5.9c0 .4.3.8.7.8s.8-.3.8-.7v-6c0-1-.4-2-1.1-2.8l.2-.1c.2-.1.5-.1.7-.3l1.9 1.9v7c0 .4.3.8.7.8s.8-.3.8-.7v-7.1l1.9-1.9c.1.1.2.1.3.1l3.1.9c.7.2 1.2.9 1.2 1.6v6.3c0 .4.4.7.8.7s.7-.3.7-.7V38c.1-1.4-.9-2.7-2.2-3.1zM4.9 33.6c-.9-.3-1.8-.8-2.4-1.6.2-.6.4-1.2.4-1.8.4 1 1.1 1.9 2 2.5v.9zm4.4 2.1c-.6.6-1.7.6-2.3 0l-.8-.7c.1-.2.2-.5.2-.7v-.8c1.1.3 2.3.3 3.4 0v.8c0 .3.1.5.2.7l-.7.7zm-1.2-3.5C5.8 32.2 4 30.3 4 28c0-.4-.3-.8-.8-.8h-.1V27c0-.5 0-1 .1-1.4.1-1.3.6-2.6 1.5-3.6 1.8-1.9 4.8-1.9 6.7-.1l.1.1c.9 1 1.5 2.2 1.5 3.6 0 .4 0 .9.1 1.4v.1c-.9-1.3-2.2-2.3-3.8-2.7-.9-.2-1.9-.4-2.9-.4-.2 0-.4.1-.5.2l-1.4 1.4c-.3.3-.3.8 0 1.1.3.3.8.3 1.1 0l1.1-1.2c1 0 4.2.4 5.4 3.1-.2 2.1-2 3.6-4 3.6zm3.2 1.4v-.9c.9-.6 1.6-1.5 2-2.5.1.6.2 1.2.4 1.8-.6.8-1.5 1.3-2.4 1.6zm7.3-12.4v-1.9c0-.1 0-.2-.1-.3-.5-1-.7-2.1-.7-3.2v-1.6c0-3.2 2.6-5.8 5.8-5.8h10.6v7.4c0 1.1-.3 2.2-.7 3.2 0 .1-.1.2-.1.3v2.2c0 2-.8 4-2.3 5.4-.2.2-.4.3-.6.5-1.4 1.1-3.2 1.6-4.9 1.5-4-.4-7-3.7-7-7.7zm4.3 15.4s-.1 0 0 0L20.5 33l.8-.8 3.6 2.5-2 1.9zm3.1-3l-4.1-2.8v-1.4c1.1.6 2.3.9 3.5 1h.6c1.4 0 2.8-.3 4.1-1v1.4L26 33.6zm3.2 3c-.1 0-.1 0 0 0l-2-1.9 3.6-2.5.8.8-2.4 3.6zm13.9-.7l-1.7-1.7v-.8c.5.2 1 .3 1.5.3h.2c.6 0 1.1-.1 1.7-.3v.3c0 .1 0 .3.1.4l-1.8 1.8zM46 31c-.8.8-1.9 1.2-3 1.2-2.3-.1-4-2-4-4.3v-1.4c0-.1 0-.2-.1-.3l-.5-.9c-.2-.3-.3-.7-.3-1.1 0-1.8 1.5-3.3 3.3-3.3H48v3.2c0 .5-.1 1-.3 1.5l-.4.8c-.1.1-.1.2-.1.3V28c0 1.2-.4 2.2-1.2 3z"/></g></g><g id="Group_110" transform="translate(47.219 99.829)"><g id="Group_109"><path id="Path_186" class="st0" d="M.8 6.9c-.5 0-.8.4-.8.8v4.9c0 .4.3.8.7.8s.8-.3.8-.7v-5c0-.4-.3-.8-.7-.8z"/></g></g><g id="Group_112" transform="translate(3.258 100.836)"><g id="Group_111"><path id="Path_187" class="st0" d="M.8 6.9c-.5 0-.8.4-.8.8v3.9c0 .4.3.8.7.8s.8-.3.8-.7v-4c0-.4-.3-.8-.7-.8z"/></g></g><g id="Group_114" transform="translate(19.547 74.986)"><g id="Group_113"><path id="Path_188" class="st0" d="M12.7 9.2c-2.9-2.9-8.9-2.3-11.4-2C.6 7.3 0 8 0 8.8v1.8c0 .4.4.7.8.7s.7-.3.7-.7V8.7c1.6-.3 3.3-.3 4.9-.2 2.4.2 4.1.8 5.1 1.8.3.3.8.3 1.1 0 .4-.4.4-.8.1-1.1z"/></g></g><g id="Group_116" transform="translate(16.289 101.458)"><g id="Group_115"><path id="Path_189" class="st0" d="M.8 6.9c-.5 0-.8.4-.8.8V11c0 .4.4.7.8.7s.7-.3.7-.7V7.7c0-.4-.3-.8-.7-.8z"/></g></g><g id="Group_118" transform="translate(34.207 101.458)"><g id="Group_117"><path id="Path_190" class="st0" d="M.8 6.9c-.5 0-.8.4-.8.8V11c0 .4.4.7.8.7s.7-.3.7-.7V7.7c0-.4-.3-.8-.7-.8z"/></g></g></g></svg>