<?xml version="1.0" standalone="no"?>
<!DOCTYPE svg PUBLIC "-//W3C//DTD SVG 20010904//EN"
 "http://www.w3.org/TR/2001/REC-SVG-20010904/DTD/svg10.dtd">
<svg version="1.0" xmlns="http://www.w3.org/2000/svg"
 width="604.000000pt" height="604.000000pt" viewBox="0 0 604.000000 604.000000"
 preserveAspectRatio="xMidYMid meet">
<metadata>
Created by potrace 1.11, written by Peter Selinger 2001-2013
</metadata>
<g transform="translate(0.000000,604.000000) scale(0.100000,-0.100000)"
fill="#000000" stroke="none">
<path d="M410 6031 c0 -5 4 -11 8 -13 6 -2 57 -89 209 -353 12 -22 32 -58 44
-80 12 -22 35 -59 51 -82 16 -24 26 -43 22 -43 -3 0 -1 -7 6 -15 18 -22 140
-236 140 -246 0 -5 3 -9 8 -9 4 0 18 -21 32 -47 13 -27 41 -76 62 -111 21 -34
38 -64 38 -66 0 -2 18 -34 40 -70 22 -36 40 -69 40 -74 0 -4 8 -17 18 -28 9
-11 26 -37 37 -59 11 -22 36 -67 56 -100 20 -33 47 -80 61 -105 14 -25 58
-101 98 -170 40 -69 81 -141 92 -160 11 -19 37 -64 58 -100 21 -36 48 -83 60
-105 13 -22 31 -53 41 -70 11 -16 26 -43 34 -60 9 -16 24 -43 35 -60 10 -16
25 -41 33 -55 71 -127 197 -342 209 -357 6 -7 7 -13 3 -13 -5 0 -1 -8 7 -17
15 -19 42 -64 91 -153 16 -30 34 -60 38 -66 5 -6 23 -37 40 -69 27 -51 30 -62
18 -79 -28 -46 -402 -694 -441 -766 -17 -30 -39 -67 -49 -82 -11 -14 -19 -29
-19 -32 0 -3 -27 -52 -60 -108 -81 -137 -78 -132 -172 -296 -46 -79 -90 -155
-99 -170 -9 -15 -27 -47 -41 -72 -14 -25 -35 -63 -48 -85 -12 -22 -26 -44 -30
-50 -4 -5 -19 -31 -33 -56 -42 -77 -52 -93 -64 -107 -7 -7 -13 -18 -13 -23 0
-5 -20 -43 -45 -83 -25 -41 -45 -79 -45 -85 0 -6 -4 -11 -9 -11 -5 0 -14 -12
-20 -28 -6 -15 -22 -45 -36 -67 -14 -22 -28 -46 -32 -54 -4 -8 -42 -75 -85
-149 -43 -74 -78 -136 -78 -139 0 -2 -12 -20 -26 -38 -14 -19 -25 -37 -24 -40
0 -3 -15 -32 -34 -64 -20 -32 -36 -64 -36 -70 0 -6 -4 -11 -9 -11 -5 0 -14
-12 -20 -27 -6 -16 -20 -41 -30 -58 -11 -16 -26 -41 -34 -55 -7 -14 -32 -58
-55 -97 l-41 -73 1744 0 1743 0 33 58 c19 31 37 64 42 72 4 8 18 33 31 55 71
123 362 627 384 665 14 25 44 77 67 115 22 39 44 77 48 85 4 8 20 36 35 61 15
25 105 180 200 345 95 164 177 306 182 314 12 19 65 111 98 170 14 25 99 173
190 330 91 157 174 301 185 320 10 19 61 107 112 195 51 88 103 177 114 199
l22 39 -35 57 c-20 32 -36 63 -36 69 0 6 -4 11 -10 11 -5 0 -10 5 -10 10 0 8
-256 456 -308 540 -9 14 -14 25 -13 25 2 0 -15 29 -38 65 -22 36 -54 92 -72
125 -17 33 -38 67 -45 76 -8 8 -14 18 -14 21 0 4 -19 39 -43 80 -24 40 -46 80
-50 88 -4 8 -16 29 -27 45 -11 17 -28 46 -37 65 -10 19 -21 37 -26 38 -4 2 -7
8 -7 13 0 5 -17 37 -38 71 -21 35 -52 88 -69 118 -40 72 -101 177 -124 215
-10 17 -22 37 -26 45 -4 8 -44 79 -90 157 -45 78 -90 158 -100 177 -9 20 -20
36 -25 36 -4 0 -8 4 -8 10 0 5 -14 33 -31 62 -18 29 -40 67 -49 83 -9 17 -77
134 -150 260 -73 127 -138 240 -144 252 -6 13 -14 23 -18 23 -5 0 -8 4 -8 9 0
5 -21 45 -46 90 l-45 81 -1745 0 c-1050 0 -1744 -4 -1744 -9z"/>
</g>
</svg>
