<svg xmlns="http://www.w3.org/2000/svg" width="461.9" height="404.796" viewBox="0 0 461.9 404.796">
  <g id="scout" transform="translate(-394.194 -4540)">
    <path id="Path_426" data-name="Path 426" d="M74.268,55.14C61.364,22.719,72.912,0,72.912,0S43.391,17.3,4.03,15.713c-4.6,7.46-5.714,24.918-.953,33.489,5.079-1.27,11.268.952,11.268.952L16.939,44A141.647,141.647,0,0,1,42.2,46.7C56.535,49.491,74.268,55.14,74.268,55.14Z" transform="translate(727.075 4635.672) rotate(-11)" fill="#ebf4f6"/>
    <path id="Path_408" data-name="Path 408" d="M-366.965-362.265c2.694.093,1.586,5.381,1.586,5.381s6.481,1.576,11.512-.829c4.156,1.168,4.751,17.815-9.9,17.6-5.774-.086-9.834-3.716-10.161-8.307C-374.39-354.749-369.659-362.358-366.965-362.265Z" transform="translate(1109.668 5055.005)" fill="#fbb99f"/>
    <path id="Path_401" data-name="Path 401" d="M-533.353-635.139h-23.641a15.152,15.152,0,0,1-14.776-14.776v-3.94a15.152,15.152,0,0,1,14.776-14.776h23.641v-10.836h-25.611a23.627,23.627,0,0,0-23.641,23.641v6.9c0,13.068,10.574,24.626,23.641,24.626h25.611Z" transform="translate(1353.391 5414.013)" fill="none" stroke="#00202c" stroke-miterlimit="10" stroke-width="2"/>
    <path id="Path_402" data-name="Path 402" d="M2.945,10.814S-1.8-1.935,6.948.252C6.616,3.1,6.269,4.97,6.269,4.97s7.406.658,12.436-1.748c4.156,1.168,4.455,17.882-10.2,17.663S2.477,13.563,2.945,10.814Z" transform="translate(765.313 4752.589) rotate(8)" fill="#fbb99f"/>
    <path id="Path_389" data-name="Path 389" d="M8131.291,4113.057l-3.835,9.44a12.7,12.7,0,0,0-1.006,5.262c0,3.265-.079,1.872.993,7.794,7.724,42.68,42.311,233.792,55.2,305.008a23.689,23.689,0,0,0,1.483,5.017,6.924,6.924,0,0,0,5.022,3.729l10.228,1.779" transform="translate(-7714.314 489.008)" fill="#d9e1e3" stroke="#1a1818" stroke-width="2"/>
    <path id="Path_390" data-name="Path 390" d="M-239.388,232.337l-137.448-.393a11.444,11.444,0,0,0-4.6.91,9.639,9.639,0,0,0-3.464,2.519,9.3,9.3,0,0,0-1.976,3.761,10.576,10.576,0,0,0-.133,4.616l59.487,323.129a14.108,14.108,0,0,0,2.016,5.139,12.372,12.372,0,0,0,3.575,3.619,11.419,11.419,0,0,0,4.614,1.761,11.67,11.67,0,0,0,5.129-.41l140.236-42.915a8.928,8.928,0,0,0,3.524-2.084,11.321,11.321,0,0,0,2.457-3.479,13.853,13.853,0,0,0,1.183-4.389,15.013,15.013,0,0,0-.3-4.826l-62.519-276.672a13.24,13.24,0,0,0-1.641-3.993A14.28,14.28,0,0,0-232,235.366a12.963,12.963,0,0,0-3.5-2.209,10.148,10.148,0,0,0-3.882-.821" transform="translate(807.438 4365.106)" fill="#f9fafb"/>
    <path id="Path_388" data-name="Path 388" d="M-245.92,278.878l-110.837,5.8,37.728,197.208L-206.9,456.007-245.92,278.878" transform="translate(814.801 4378.48)" fill="#fc9600"/>
    <path id="Path_377" data-name="Path 377" d="M-312.718,574.182a9.294,9.294,0,0,1-4.085.315,9.1,9.1,0,0,1-3.669-1.411,9.862,9.862,0,0,1-2.841-2.883,11.237,11.237,0,0,1-1.6-4.087l-59.565-322.383a8.462,8.462,0,0,1,.1-3.676,7.417,7.417,0,0,1,1.566-3,7.676,7.676,0,0,1,2.754-2.017,9.088,9.088,0,0,1,3.667-.735l137.472.12a8.066,8.066,0,0,1,3.1.65,10.327,10.327,0,0,1,2.8,1.764,11.394,11.394,0,0,1,2.2,2.608,10.564,10.564,0,0,1,1.311,3.19L-167,519.855a11.963,11.963,0,0,1,.234,3.856,11.022,11.022,0,0,1-.949,3.5,9.008,9.008,0,0,1-1.966,2.775,7.1,7.1,0,0,1-2.815,1.656l-140.219,42.538m73.33-341.844-137.448-.393a11.444,11.444,0,0,0-4.6.91,9.639,9.639,0,0,0-3.464,2.519,9.3,9.3,0,0,0-1.976,3.761,10.576,10.576,0,0,0-.133,4.616l59.487,323.129a14.108,14.108,0,0,0,2.016,5.139,12.372,12.372,0,0,0,3.575,3.619,11.419,11.419,0,0,0,4.614,1.761,11.67,11.67,0,0,0,5.129-.41l140.236-42.915a8.928,8.928,0,0,0,3.524-2.084,11.321,11.321,0,0,0,2.457-3.479,13.853,13.853,0,0,0,1.183-4.389,15.013,15.013,0,0,0-.3-4.826l-62.519-276.672a13.24,13.24,0,0,0-1.641-3.993A14.28,14.28,0,0,0-232,235.366a12.963,12.963,0,0,0-3.5-2.209,10.148,10.148,0,0,0-3.882-.821" transform="translate(802.011 4363.906)" fill="#1a1818"/>
    <path id="Path_378" data-name="Path 378" d="M-320.068,247.4l34.081-.415a3.2,3.2,0,0,0,1.408-.332,2.86,2.86,0,0,0,1.021-.869,3.141,3.141,0,0,0,.541-1.273,3.952,3.952,0,0,0-.03-1.547,1.746,1.746,0,0,1-.015-.7,1.4,1.4,0,0,1,.24-.569,1.268,1.268,0,0,1,.454-.386,1.4,1.4,0,0,1,.622-.145l39.292-.269a1.564,1.564,0,0,1,.613.125,2.038,2.038,0,0,1,.556.351,2.247,2.247,0,0,1,.439.524,2.1,2.1,0,0,1,.262.645l57.229,256.532a2.328,2.328,0,0,1,.044.764,2.116,2.116,0,0,1-.19.688,1.724,1.724,0,0,1-.391.538,1.344,1.344,0,0,1-.557.31l-133.058,36.106a1.775,1.775,0,0,1-.787.033,1.845,1.845,0,0,1-.707-.3,2.033,2.033,0,0,1-.547-.576,2.275,2.275,0,0,1-.313-.8l-54.883-292.16a1.747,1.747,0,0,1,.014-.732,1.5,1.5,0,0,1,.3-.6,1.488,1.488,0,0,1,.529-.4,1.714,1.714,0,0,1,.707-.152l46.072-.316a1.964,1.964,0,0,1,.73.141,2.333,2.333,0,0,1,.654.393,2.449,2.449,0,0,1,.507.586,2.208,2.208,0,0,1,.288.719,4.843,4.843,0,0,0,.641,1.6,5.447,5.447,0,0,0,1.135,1.3,5.27,5.27,0,0,0,1.467.871,4.428,4.428,0,0,0,1.638.305m77.146-8.6-39.287.192a3.169,3.169,0,0,0-1.4.318,2.816,2.816,0,0,0-1.022.855,3.1,3.1,0,0,0-.544,1.268,3.924,3.924,0,0,0,.03,1.551,1.75,1.75,0,0,1,.014.692,1.387,1.387,0,0,1-.24.569,1.26,1.26,0,0,1-.452.388,1.41,1.41,0,0,1-.627.147l-34.075.346a1.934,1.934,0,0,1-.724-.138,2.321,2.321,0,0,1-.65-.389,2.44,2.44,0,0,1-.5-.581,2.155,2.155,0,0,1-.285-.713,4.884,4.884,0,0,0-.641-1.6,5.459,5.459,0,0,0-1.133-1.3,5.269,5.269,0,0,0-1.468-.874,4.45,4.45,0,0,0-1.647-.315l-46.062.224a4.006,4.006,0,0,0-1.635.341,3.427,3.427,0,0,0-1.221.917,3.356,3.356,0,0,0-.688,1.355,3.848,3.848,0,0,0-.037,1.656l54.818,292.824a5.112,5.112,0,0,0,.714,1.823,4.557,4.557,0,0,0,1.262,1.3,4.146,4.146,0,0,0,1.628.667,4.13,4.13,0,0,0,1.816-.09l133.076-36.454a3.132,3.132,0,0,0,1.274-.707,3.9,3.9,0,0,0,.895-1.22,4.822,4.822,0,0,0,.439-1.562,5.315,5.315,0,0,0-.1-1.735l-57.245-256.024a4.835,4.835,0,0,0-.6-1.457,5.156,5.156,0,0,0-1-1.186,4.648,4.648,0,0,0-1.271-.8,3.626,3.626,0,0,0-1.4-.289" transform="translate(804.349 4365.522)" fill="#1a1818"/>
    <path id="Path_379" data-name="Path 379" d="M-280.541,485.765a2.136,2.136,0,0,1-.98.051,2.257,2.257,0,0,1-.889-.378,2.629,2.629,0,0,1-.7-.735,3.05,3.05,0,0,1-.408-1.025,3.276,3.276,0,0,1-.027-1.133,3.2,3.2,0,0,1,.34-1.031,2.824,2.824,0,0,1,.645-.816,2.361,2.361,0,0,1,.892-.484l31.057-8.794a1.969,1.969,0,0,1,.927-.038,2.181,2.181,0,0,1,.843.372,2.59,2.59,0,0,1,.669.714,2.956,2.956,0,0,1,.4.989,3.192,3.192,0,0,1,.041,1.091,3.115,3.115,0,0,1-.308.995,2.674,2.674,0,0,1-.6.786,2.166,2.166,0,0,1-.838.467l-31.065,8.969m29.4-16.88-31.053,8.712a4.623,4.623,0,0,0-1.744.938,5.487,5.487,0,0,0-1.267,1.581,6.211,6.211,0,0,0-.669,2.007,6.344,6.344,0,0,0,.052,2.215,5.83,5.83,0,0,0,.8,2,5.051,5.051,0,0,0,1.363,1.431,4.391,4.391,0,0,0,1.736.728,4.208,4.208,0,0,0,1.917-.106l31.068-9.052a4.266,4.266,0,0,0,1.633-.912,5.175,5.175,0,0,0,1.164-1.529,6,6,0,0,0,.592-1.93,6.27,6.27,0,0,0-.083-2.125,5.819,5.819,0,0,0-.774-1.924,5,5,0,0,0-1.292-1.387,4.2,4.2,0,0,0-1.638-.722,3.846,3.846,0,0,0-1.8.073" transform="translate(825.899 4419.768)" fill="#1a1818"/>
    <path id="Path_380" data-name="Path 380" d="M-317.082,478.672l-36.794-191.7,106.454-5.8,38.005,172.915-107.665,24.585m71.161-199.794-110.836,5.805,37.727,197.208L-206.9,456.008l-39.024-177.13" transform="translate(809.194 4374.978)" fill="#1a1818"/>
    <path id="Path_382" data-name="Path 382" d="M-342.414,259.642l-16.2.438.289,1.5,16.2-.46-.291-1.482" transform="translate(808.757 4370.44)" fill="#1a1818"/>
    <path id="Path_383" data-name="Path 383" d="M-341.748,263.029l-16.2.5.287,1.5,16.205-.52-.29-1.475" transform="translate(808.913 4371.239)" fill="#1a1818"/>
    <path id="Path_384" data-name="Path 384" d="M-341.082,266.415l-16.209.559.288,1.5,16.212-.58-.29-1.478" transform="translate(809.068 4372.038)" fill="#1a1818"/>
    <path id="Path_385" data-name="Path 385" d="M-235.071,438.516a2.193,2.193,0,0,1-1.028.007,2.515,2.515,0,0,1-.938-.446,3.062,3.062,0,0,1-.745-.822,3.508,3.508,0,0,1-.452-1.117,3.573,3.573,0,0,1-.057-1.212,3.238,3.238,0,0,1,.329-1.084,2.687,2.687,0,0,1,.656-.835,2.239,2.239,0,0,1,.924-.472,2.16,2.16,0,0,1,1.021,0,2.5,2.5,0,0,1,.931.449,3.048,3.048,0,0,1,.74.818,3.549,3.549,0,0,1,.449,1.111,3.612,3.612,0,0,1,.061,1.207,3.283,3.283,0,0,1-.323,1.081,2.685,2.685,0,0,1-.65.838,2.235,2.235,0,0,1-.917.477m-1.838-8.383a4.071,4.071,0,0,0-1.666.845,4.88,4.88,0,0,0-1.189,1.505,5.866,5.866,0,0,0-.6,1.956,6.5,6.5,0,0,0,.1,2.2,6.341,6.341,0,0,0,.817,2.018,5.535,5.535,0,0,0,1.351,1.483,4.553,4.553,0,0,0,1.7.8,3.915,3.915,0,0,0,1.853-.015,4.05,4.05,0,0,0,1.655-.865,4.879,4.879,0,0,0,1.17-1.515,5.885,5.885,0,0,0,.582-1.95,6.5,6.5,0,0,0-.107-2.175,6.378,6.378,0,0,0-.812-2,5.541,5.541,0,0,0-1.335-1.474,4.551,4.551,0,0,0-1.678-.808,3.907,3.907,0,0,0-1.84,0" transform="translate(836.642 4410.635)" fill="#1a1818"/>
    <path id="Path_386" data-name="Path 386" d="M-243,440.51a2.239,2.239,0,0,1-1.043.007,2.559,2.559,0,0,1-.954-.449,3.09,3.09,0,0,1-.758-.828,3.508,3.508,0,0,1-.456-1.128,3.584,3.584,0,0,1-.052-1.226,3.257,3.257,0,0,1,.341-1.1,2.784,2.784,0,0,1,.672-.847,2.3,2.3,0,0,1,.941-.478,2.231,2.231,0,0,1,1.042,0,2.565,2.565,0,0,1,.948.45,3.105,3.105,0,0,1,.754.826,3.51,3.51,0,0,1,.454,1.122,3.59,3.59,0,0,1,.054,1.221,3.283,3.283,0,0,1-.336,1.094,2.762,2.762,0,0,1-.667.849,2.322,2.322,0,0,1-.939.486m-1.834-8.471a4.194,4.194,0,0,0-1.7.858,4.983,4.983,0,0,0-1.216,1.524,5.932,5.932,0,0,0-.619,1.979,6.537,6.537,0,0,0,.094,2.221,6.311,6.311,0,0,0,.824,2.038,5.52,5.52,0,0,0,1.369,1.5,4.6,4.6,0,0,0,1.724.809,4.027,4.027,0,0,0,1.887-.019,4.19,4.19,0,0,0,1.691-.879,5.013,5.013,0,0,0,1.2-1.535,5.959,5.959,0,0,0,.606-1.974,6.471,6.471,0,0,0-.1-2.2,6.3,6.3,0,0,0-.819-2.023,5.546,5.546,0,0,0-1.356-1.487,4.616,4.616,0,0,0-1.708-.812,4.027,4.027,0,0,0-1.876,0" transform="translate(834.751 4411.084)" fill="#1a1818"/>
    <path id="Path_387" data-name="Path 387" d="M-251.084,442.543a2.284,2.284,0,0,1-1.062.01,2.581,2.581,0,0,1-.966-.452,3.112,3.112,0,0,1-.765-.837,3.517,3.517,0,0,1-.459-1.139,3.63,3.63,0,0,1-.049-1.24,3.347,3.347,0,0,1,.35-1.109,2.829,2.829,0,0,1,.686-.856,2.37,2.37,0,0,1,.958-.484,2.283,2.283,0,0,1,1.062,0,2.584,2.584,0,0,1,.964.454,3.084,3.084,0,0,1,.764.832,3.5,3.5,0,0,1,.459,1.133,3.6,3.6,0,0,1,.049,1.235,3.344,3.344,0,0,1-.347,1.107,2.841,2.841,0,0,1-.685.86,2.376,2.376,0,0,1-.958.492m-1.832-8.56a4.3,4.3,0,0,0-1.733.871A5.1,5.1,0,0,0-255.9,436.4a6,6,0,0,0-.641,2,6.519,6.519,0,0,0,.085,2.246,6.317,6.317,0,0,0,.831,2.059,5.607,5.607,0,0,0,1.392,1.509,4.686,4.686,0,0,0,1.753.813,4.132,4.132,0,0,0,1.919-.021,4.32,4.32,0,0,0,1.73-.894,5.115,5.115,0,0,0,1.231-1.555,6.027,6.027,0,0,0,.622-2,6.469,6.469,0,0,0-.093-2.221,6.344,6.344,0,0,0-.824-2.045,5.54,5.54,0,0,0-1.373-1.5,4.671,4.671,0,0,0-1.735-.818,4.147,4.147,0,0,0-1.916.006" transform="translate(832.824 4411.542)" fill="#1a1818"/>
    <path id="SVGID" d="M-324.567,580.9l-64.247-348.982,159.269.456,67.516,298.786Z" transform="translate(801.632 4363.899)" fill="none"/>
    <path id="Path_391" data-name="Path 391" d="M-131.979,179.888a8.853,8.853,0,0,0-3.971.989,8.2,8.2,0,0,0-2.9,2.545,9.308,9.308,0,0,0-1.537,3.732,11.678,11.678,0,0,0,.112,4.533,14.215,14.215,0,0,0,1.828,4.5,15.188,15.188,0,0,0,3.126,3.613,13.817,13.817,0,0,0,3.972,2.354,11.066,11.066,0,0,0,4.37.738,8.811,8.811,0,0,0,3.946-1.079,8.23,8.23,0,0,0,2.822-2.6,9.372,9.372,0,0,0,1.456-3.721,11.745,11.745,0,0,0-.152-4.463,14.22,14.22,0,0,0-1.8-4.4,15.231,15.231,0,0,0-3.048-3.558,13.921,13.921,0,0,0-3.893-2.368,11.228,11.228,0,0,0-4.336-.814" transform="translate(680.671 4443.117)" fill="#ebf4f6"/>
    <path id="Path_381" data-name="Path 381" d="M-275.451,272.706a8.959,8.959,0,0,1-3.54-.606,11.184,11.184,0,0,1-3.216-1.912,12.3,12.3,0,0,1-2.53-2.927,11.532,11.532,0,0,1-1.482-3.637,9.467,9.467,0,0,1-.093-3.672,7.524,7.524,0,0,1,1.242-3.023,6.65,6.65,0,0,1,2.345-2.065,7.2,7.2,0,0,1,3.216-.807,9.072,9.072,0,0,1,3.519.654,11.245,11.245,0,0,1,3.164,1.916,12.287,12.287,0,0,1,2.478,2.887,11.512,11.512,0,0,1,1.462,3.574,9.519,9.519,0,0,1,.12,3.625,7.6,7.6,0,0,1-1.189,3.019,6.67,6.67,0,0,1-2.3,2.1,7.137,7.137,0,0,1-3.2.869m-4.528-20.818a8.853,8.853,0,0,0-3.971.989,8.2,8.2,0,0,0-2.9,2.545,9.308,9.308,0,0,0-1.537,3.732,11.677,11.677,0,0,0,.112,4.533,14.213,14.213,0,0,0,1.828,4.5,15.188,15.188,0,0,0,3.126,3.613,13.818,13.818,0,0,0,3.972,2.354,11.067,11.067,0,0,0,4.37.738,8.809,8.809,0,0,0,3.946-1.079,8.23,8.23,0,0,0,2.822-2.6,9.371,9.371,0,0,0,1.456-3.721,11.745,11.745,0,0,0-.152-4.463,14.219,14.219,0,0,0-1.8-4.4,15.232,15.232,0,0,0-3.048-3.558,13.922,13.922,0,0,0-3.893-2.368,11.229,11.229,0,0,0-4.336-.814" transform="translate(825.284 4368.611)" fill="#1a1818"/>
    <path id="Path_392" data-name="Path 392" d="M-549.619-346.815s30.7-5.527,57.987-44.022,62.374-13.644,68.221,12.669,11.138,66.759,119.317,67.734c2.923,0,0,12.849,0,12.849s-82.127,16.388-115.1-12.849-43.252,1.462-43.252,1.462-10.671,17.542-45.756,29.237S-549.619-346.815-549.619-346.815Z" transform="translate(1068.606 5066.784)" fill="#fc9600"/>
    <path id="Path_403" data-name="Path 403" d="M.95,11.859C.618,7.759-2.381,3.912,5.5,0c-.331,2.851-.454,4.443-.454,4.443s7.406.658,12.436-1.748c4.156,1.168,7.082,18.488-7.573,18.269S1.283,15.958.95,11.859Z" transform="translate(766.448 4751.312) rotate(8)" fill="none" stroke="#00202c" stroke-miterlimit="10" stroke-width="2"/>
    <rect id="Rectangle_199" data-name="Rectangle 199" width="12.806" height="14.776" transform="translate(810.679 4733.07)" fill="#ebf4f6"/>
    <rect id="Rectangle_198" data-name="Rectangle 198" width="12.806" height="14.776" transform="translate(810.679 4777.397)" fill="#ebf4f6"/>
    <g id="Rectangle_196" data-name="Rectangle 196" transform="translate(808.709 4732.085)" fill="none" stroke="#00202c" stroke-width="2">
      <rect width="12.806" height="14.776" stroke="none"/>
      <rect x="1" y="1" width="10.806" height="12.776" fill="none"/>
    </g>
    <g id="Rectangle_197" data-name="Rectangle 197" transform="translate(808.709 4776.412)" fill="none" stroke="#00202c" stroke-width="2">
      <rect width="12.806" height="14.776" stroke="none"/>
      <rect x="1" y="1" width="10.806" height="12.776" fill="none"/>
    </g>
    <path id="Path_404" data-name="Path 404" d="M6726.219,4748.56s4.788-5.787,8.634-5.338,3.572,4.453,8.32,5.338,9.733-5.338,9.733-5.338" transform="translate(-5897.593 -6.978)" fill="none" stroke="#00202c" stroke-width="2"/>
    <path id="Path_405" data-name="Path 405" d="M6726.219,4748.56s4.788-5.787,8.634-5.338,3.572,4.453,8.32,5.338,9.733-5.338,9.733-5.338" transform="translate(-5897.593 41.29)" fill="none" stroke="#00202c" stroke-width="2"/>
    <path id="Path_406" data-name="Path 406" d="M6726.218,4746.506s3.856-3.57,6.954-3.293,2.876,2.747,6.7,3.293,7.838-3.293,7.838-3.293" transform="translate(-5895.98 33.467)" fill="none" stroke="#00202c" stroke-width="2"/>
    <path id="Path_407" data-name="Path 407" d="M-366.965-362.265c2.694.093,1.586,5.381,1.586,5.381s6.481,1.576,11.512-.829c4.156,1.168,4.751,17.815-9.9,17.6-5.774-.086-9.834-3.716-10.161-8.307C-374.39-354.749-369.659-362.358-366.965-362.265Z" transform="translate(1107.698 5053.035)" fill="none" stroke="#00202c" stroke-miterlimit="10" stroke-width="2"/>
    <path id="Path_409" data-name="Path 409" d="M-549.619-346.815s30.7-5.527,57.987-44.022,62.374-13.644,68.221,12.669,11.138,66.759,119.317,67.734c2.923,0,0,12.849,0,12.849s-82.127,16.388-115.1-12.849-43.252,1.462-43.252,1.462-10.671,17.542-45.756,29.237S-549.619-346.815-549.619-346.815Z" transform="translate(1069.591 5064.813)" fill="none" stroke="#00202c" stroke-linecap="round" stroke-miterlimit="10" stroke-width="2"/>
    <path id="Path_395" data-name="Path 395" d="M19.684,69.426l4.294-9.662,12.885,1.79s10.2-12.528,11.809-27.917S43.3,0,43.3,0L19.684,13.955,21.116,22.9S15.748,16.46,10.738,20.04s3.578,18.968,3.578,18.968L12.526,45.09,4.653,47.239,0,64.775s3.608,5,8.529,6.163S19.684,69.426,19.684,69.426Z" transform="matrix(0.951, 0.309, -0.309, 0.951, 630.28, 4598.629)" fill="#fbb99f"/>
    <path id="Path_396" data-name="Path 396" d="M10.9,65.068,0,51.75V11.308L28.7,0,51.237,6.357,63.951,7.513,53.664,21.727,49.029,19.9,29.344,34.572l-2.5,8.231s-5.368-7.874-9.306-3.937,3.22,17.178,3.22,17.178l-2.341,7.289Z" transform="matrix(0.951, 0.309, -0.309, 0.951, 628.303, 4580.129)" fill="#0b2631"/>
    <path id="Path_393" data-name="Path 393" d="M-444.6-361.315s11.821,36.97,34.7,44.98,56.817-12.938,56.817-12.938l4.82,9.684s4.123,3.717,14.769,3.065c-26.9,27.367-63.522,35.4-96.107,24.857s-57.929-66.2-57.929-66.2Z" transform="translate(1082.374 5036.435)" fill="#fc9600"/>
    <path id="Path_410" data-name="Path 410" d="M-444.6-361.315s11.821,36.97,34.7,44.98,56.817-12.938,56.817-12.938l4.82,9.684s4.123,3.717,14.769,3.065c-26.9,27.367-63.522,35.4-96.107,24.857s-57.929-66.2-57.929-66.2Z" transform="translate(1081.389 5035.449)" fill="none" stroke="#00202c" stroke-miterlimit="10" stroke-width="2"/>
    <path id="Path_411" data-name="Path 411" d="M6539.255,4696.074l-8.135-17.974-19.169.351-28.367,1.021,1.225,21.021,19.591,28.57,37.989-22.655Z" transform="translate(-5893.966 -6.005)" fill="#fc9600"/>
    <path id="Path_412" data-name="Path 412" d="M6420.005,4715.871l49.225,78.98-47.25,13.451-27.247-89.672Z" transform="translate(-5892.638 -6.569)" fill="#fc9600"/>
    <path id="Path_413" data-name="Path 413" d="M6410.217,4715.871s-5.715,10.692,5.1,16" transform="translate(-5892.847 -6.569)" fill="none" stroke="#00202c" stroke-linecap="round" stroke-width="2"/>
    <path id="Path_414" data-name="Path 414" d="M6409.825,4715.871s-4.229,7.912,3.775,11.838" transform="translate(-5898.883 -1.534)" fill="none" stroke="#00202c" stroke-linecap="round" stroke-width="2"/>
    <path id="Path_415" data-name="Path 415" d="M1.116,0S-3.112,7.912,4.891,11.838" transform="translate(564.055 4787.195) rotate(-76)" fill="none" stroke="#00202c" stroke-linecap="round" stroke-width="2"/>
    <path id="Path_416" data-name="Path 416" d="M19.684,69.426l4.294-9.662,12.885,1.79s10.2-12.528,11.809-27.917S43.3,0,43.3,0L19.684,13.955,21.116,22.9S15.748,16.46,10.738,20.04s3.578,18.968,3.578,18.968L12.526,45.09,4.653,47.239,0,64.775s3.608,5,8.529,6.163S19.684,69.426,19.684,69.426Z" transform="matrix(0.951, 0.309, -0.309, 0.951, 628.31, 4598.629)" fill="none" stroke="#00202c" stroke-width="2"/>
    <path id="Path_419" data-name="Path 419" d="M9.9,65.708l4.444-15.554S8.157,47.931,3.078,49.2c-4.761-8.571-3.65-26.029.953-33.489C43.391,17.3,72.912,0,72.912,0S61.364,22.719,74.268,55.14" transform="translate(723.075 4633.672) rotate(-11)" fill="none" stroke="#00202c" stroke-linecap="round" stroke-width="2"/>
    <g id="Ellipse_37" data-name="Ellipse 37" transform="translate(784.966 4613.72) rotate(-11)" fill="none" stroke="#00202c" stroke-width="2">
      <ellipse cx="17.238" cy="40.387" rx="17.238" ry="40.387" stroke="none"/>
      <ellipse cx="17.238" cy="40.387" rx="16.238" ry="39.387" fill="none"/>
    </g>
    <path id="Path_420" data-name="Path 420" d="M60.862,19.363C32.769-.317,2.772,0,2.772,0L0,14.264" transform="translate(750.32 4681.571) rotate(-11)" fill="none" stroke="#00202c" stroke-width="2"/>
    <ellipse id="Ellipse_39" data-name="Ellipse 39" cx="4.433" cy="6.895" rx="4.433" ry="6.895" transform="matrix(0.985, -0.174, 0.174, 0.985, 808.534, 4642.978)" fill="#fc9600"/>
    <g id="Ellipse_38" data-name="Ellipse 38" transform="matrix(0.985, -0.174, 0.174, 0.985, 806.564, 4641.008)" fill="none" stroke="#00202c" stroke-width="2">
      <ellipse cx="4.433" cy="6.895" rx="4.433" ry="6.895" stroke="none"/>
      <ellipse cx="4.433" cy="6.895" rx="3.433" ry="5.895" fill="none"/>
    </g>
    <path id="Path_421" data-name="Path 421" d="M6705.845,4646.978a19.853,19.853,0,0,1-10.245,0" transform="translate(-5895.165 -5.539)" fill="none" stroke="#00202c" stroke-linecap="round" stroke-width="2"/>
    <path id="Path_422" data-name="Path 422" d="M6705.848,4647.653s-6.366.365-8.748,5.4" transform="translate(-5893.198 5.286)" fill="none" stroke="#00202c" stroke-linecap="round" stroke-width="2"/>
    <circle id="Ellipse_40" data-name="Ellipse 40" cx="9.358" cy="9.358" r="9.358" transform="translate(685.578 4818.77)" fill="#23decd"/>
    <g id="Ellipse_41" data-name="Ellipse 41" transform="translate(461.971 4540)" fill="#fff" stroke="#00202c" stroke-width="2">
      <circle cx="6.403" cy="6.403" r="6.403" stroke="none"/>
      <circle cx="6.403" cy="6.403" r="5.403" fill="none"/>
    </g>
    <g id="Group_357" data-name="Group 357" transform="translate(744.872 4589.443)">
      <line id="Line_3" data-name="Line 3" y2="12.424" transform="translate(6.212 0)" fill="none" stroke="#00202c" stroke-width="2"/>
      <line id="Line_4" data-name="Line 4" y2="12.424" transform="translate(12.424 6.212) rotate(90)" fill="none" stroke="#00202c" stroke-width="2"/>
    </g>
    <g id="Group_358" data-name="Group 358" transform="translate(736.006 4833.736)">
      <line id="Line_3-2" data-name="Line 3" y2="12.424" transform="translate(6.212 0)" fill="none" stroke="#00202c" stroke-width="2"/>
      <line id="Line_4-2" data-name="Line 4" y2="12.424" transform="translate(12.424 6.212) rotate(90)" fill="none" stroke="#00202c" stroke-width="2"/>
    </g>
    <g id="Group_359" data-name="Group 359" transform="translate(394.194 4787.438)">
      <line id="Line_3-3" data-name="Line 3" y2="12.424" transform="translate(6.212 0)" fill="none" stroke="#00202c" stroke-width="2"/>
      <line id="Line_4-3" data-name="Line 4" y2="12.424" transform="translate(12.424 6.212) rotate(90)" fill="none" stroke="#00202c" stroke-width="2"/>
    </g>
    <g id="Ellipse_42" data-name="Ellipse 42" transform="translate(681.638 4814.829)" fill="none" stroke="#00202c" stroke-width="2">
      <circle cx="10.343" cy="10.343" r="10.343" stroke="none"/>
      <circle cx="10.343" cy="10.343" r="9.343" fill="none"/>
    </g>
  </g>
</svg>
