<svg version="1.0" xmlns="http://www.w3.org/2000/svg" width="805.333" height="805.333" viewBox="0 0 604 604"><path d="M41 .9c0 .5.4 1.1.8 1.3.6.2 5.7 8.9 20.9 35.3 1.2 2.2 3.2 5.8 4.4 8 1.2 2.2 3.5 5.9 5.1 8.2 1.6 2.4 2.6 4.3 2.2 4.3-.3 0-.1.7.6 1.5 1.8 2.2 14 23.6 14 24.6 0 .5.3.9.8.9.4 0 1.8 2.1 3.2 4.7 1.3 2.7 4.1 7.6 6.2 11.1 2.1 3.4 3.8 6.4 3.8 6.6 0 .2 1.8 3.4 4 7s4 6.9 4 7.4c0 .4.8 1.7 1.8 2.8.9 1.1 2.6 3.7 3.7 5.9s3.6 6.7 5.6 10c2 3.3 4.7 8 6.1 10.5 1.4 2.5 5.8 10.1 9.8 17 4 6.9 8.1 14.1 9.2 16 1.1 1.9 3.7 6.4 5.8 10 2.1 3.6 4.8 8.3 6 10.5 1.3 2.2 3.1 5.3 4.1 7 1.1 1.6 2.6 4.3 3.4 6 .9 1.6 2.4 4.3 3.5 6 1 1.6 2.5 4.1 3.3 5.5 7.1 12.7 19.7 34.2 20.9 35.7.6.7.7 1.3.3 1.3-.5 0-.1.8.7 1.7 1.5 1.9 4.2 6.4 9.1 15.3 1.6 3 3.4 6 3.8 6.6.5.6 2.3 3.7 4 6.9 2.7 5.1 3 6.2 1.8 7.9-2.8 4.6-40.2 69.4-44.1 76.6-1.7 3-3.9 6.7-4.9 8.2-1.1 1.4-1.9 2.9-1.9 3.2 0 .3-2.7 5.2-6 10.8-8.1 13.7-7.8 13.2-17.2 29.6-4.6 7.9-9 15.5-9.9 17-.9 1.5-2.7 4.7-4.1 7.2-1.4 2.5-3.5 6.3-4.8 8.5-1.2 2.2-2.6 4.4-3 5-.4.5-1.9 3.1-3.3 5.6-4.2 7.7-5.2 9.3-6.4 10.7-.7.7-1.3 1.8-1.3 2.3 0 .5-2 4.3-4.5 8.3-2.5 4.1-4.5 7.9-4.5 8.5 0 .6-.4 1.1-.9 1.1s-1.4 1.2-2 2.8c-.6 1.5-2.2 4.5-3.6 6.7s-2.8 4.6-3.2 5.4c-.4.8-4.2 7.5-8.5 14.9S72 550.4 72 550.7c0 .2-1.2 2-2.6 3.8-1.4 1.9-2.5 3.7-2.4 4 0 .3-1.5 3.2-3.4 6.4-2 3.2-3.6 6.4-3.6 7 0 .6-.4 1.1-.9 1.1s-1.4 1.2-2 2.7c-.6 1.6-2 4.1-3 5.8-1.1 1.6-2.6 4.1-3.4 5.5-.7 1.4-3.2 5.8-5.5 9.7l-4.1 7.3h348.7l3.3-5.8c1.9-3.1 3.7-6.4 4.2-7.2.4-.8 1.8-3.3 3.1-5.5 7.1-12.3 36.2-62.7 38.4-66.5 1.4-2.5 4.4-7.7 6.7-11.5 2.2-3.9 4.4-7.7 4.8-8.5.4-.8 2-3.6 3.5-6.1 1.5-2.5 10.5-18 20-34.5 9.5-16.4 17.7-30.6 18.2-31.4 1.2-1.9 6.5-11.1 9.8-17 1.4-2.5 9.9-17.3 19-33s17.4-30.1 18.5-32c1-1.9 6.1-10.7 11.2-19.5s10.3-17.7 11.4-19.9l2.2-3.9-3.5-5.7c-2-3.2-3.6-6.3-3.6-6.9 0-.6-.4-1.1-1-1.1-.5 0-1-.5-1-1 0-.8-25.6-45.6-30.8-54-.9-1.4-1.4-2.5-1.3-2.5.2 0-1.5-2.9-3.8-6.5-2.2-3.6-5.4-9.2-7.2-12.5-1.7-3.3-3.8-6.7-4.5-7.6-.8-.8-1.4-1.8-1.4-2.1 0-.4-1.9-3.9-4.3-8-2.4-4-4.6-8-5-8.8-.4-.8-1.6-2.9-2.7-4.5-1.1-1.7-2.8-4.6-3.7-6.5-1-1.9-2.1-3.7-2.6-3.8-.4-.2-.7-.8-.7-1.3s-1.7-3.7-3.8-7.1c-2.1-3.5-5.2-8.8-6.9-11.8-4-7.2-10.1-17.7-12.4-21.5-1-1.7-2.2-3.7-2.6-4.5-.4-.8-4.4-7.9-9-15.7-4.5-7.8-9-15.8-10-17.7-.9-2-2-3.6-2.5-3.6-.4 0-.8-.4-.8-1 0-.5-1.4-3.3-3.1-6.2-1.8-2.9-4-6.7-4.9-8.3-.9-1.7-7.7-13.4-15-26-7.3-12.7-13.8-24-14.4-25.2-.6-1.3-1.4-2.3-1.8-2.3-.5 0-.8-.4-.8-.9s-2.1-4.5-4.6-9L389.9 0H215.4C110.4 0 41 .4 41 .9z"/></svg>