<svg xmlns="http://www.w3.org/2000/svg" width="461.9" height="404.796"><g transform="translate(-394.194 -4540)"><path data-name="Path 426" d="M810.5 4675.628c-18.853-29.363-11.853-53.868-11.853-53.868s-25.677 22.615-64.618 28.567c-3.092 8.201-.854 25.55 5.455 33.056 4.743-2.216 11.242-1.216 11.242-1.216l1.372-6.536a141.647 141.647 0 0125.312-2.17c14.605.005 33.09 2.167 33.09 2.167z" fill="#ebf4f6"/><path data-name="Path 408" d="M742.703 4692.74c2.694.093 1.586 5.381 1.586 5.381s6.481 1.576 11.512-.829c4.156 1.168 4.751 17.815-9.9 17.6-5.774-.086-9.834-3.716-10.161-8.307-.462-6.329 4.269-13.938 6.963-13.845z" fill="#fbb99f"/><path data-name="Path 401" d="M820.038 4778.874h-23.641a15.152 15.152 0 01-14.776-14.776v-3.94a15.152 15.152 0 0114.776-14.776h23.641v-10.836h-25.611a23.627 23.627 0 00-23.641 23.641v6.9c0 13.068 10.574 24.626 23.641 24.626h25.611z" fill="none" stroke="#00202c" stroke-miterlimit="10" stroke-width="2"/><path data-name="Path 402" d="M766.724 4763.708s-2.924-13.286 5.434-9.902c-.725 2.774-1.329 4.577-1.329 4.577s7.243 1.682 12.559 0c3.953 1.735 1.922 18.328-12.56 16.071s-4.95-8.09-4.104-10.746z" fill="#fbb99f"/><path data-name="Path 389" d="M416.977 4602.065l-3.835 9.44a12.7 12.7 0 00-1.006 5.262c0 3.265-.079 1.872.993 7.794l55.2 305.008a23.689 23.689 0 001.483 5.017 6.924 6.924 0 005.022 3.729l10.228 1.779" fill="#d9e1e3" stroke="#1a1818" stroke-width="2"/><path data-name="Path 390" d="M568.05 4597.443l-137.448-.393a11.444 11.444 0 00-4.6.91 9.639 9.639 0 00-3.464 2.519 9.3 9.3 0 00-1.976 3.761 10.576 10.576 0 00-.133 4.616l59.487 323.129a14.108 14.108 0 002.016 5.139 12.372 12.372 0 003.575 3.619 11.419 11.419 0 004.614 1.761 11.67 11.67 0 005.129-.41l140.236-42.915a8.928 8.928 0 003.524-2.084 11.321 11.321 0 002.457-3.479 13.853 13.853 0 001.183-4.389 15.013 15.013 0 00-.3-4.826l-62.519-276.672a13.24 13.24 0 00-1.641-3.993 14.28 14.28 0 00-2.752-3.264 12.963 12.963 0 00-3.5-2.209 10.148 10.148 0 00-3.882-.821" fill="#f9fafb"/><path data-name="Path 388" d="M568.881 4657.358l-110.837 5.8 37.728 197.208 112.129-25.879-39.02-177.129" fill="#fc9600"/><path data-name="Path 377" d="M489.293 4938.088a9.294 9.294 0 01-4.085.315 9.1 9.1 0 01-3.669-1.411 9.862 9.862 0 01-2.841-2.883 11.237 11.237 0 01-1.6-4.087l-59.565-322.383a8.462 8.462 0 01.1-3.676 7.417 7.417 0 011.566-3 7.676 7.676 0 012.754-2.017 9.088 9.088 0 013.667-.735l137.472.12a8.066 8.066 0 013.1.65 10.327 10.327 0 012.8 1.764 11.394 11.394 0 012.2 2.608 10.564 10.564 0 011.311 3.19l62.508 277.218a11.963 11.963 0 01.234 3.856 11.022 11.022 0 01-.949 3.5 9.008 9.008 0 01-1.966 2.775 7.1 7.1 0 01-2.815 1.656l-140.219 42.538m73.33-341.844l-137.448-.393a11.444 11.444 0 00-4.6.91 9.639 9.639 0 00-3.464 2.519 9.3 9.3 0 00-1.976 3.761 10.576 10.576 0 00-.133 4.616l59.487 323.129a14.108 14.108 0 002.016 5.139 12.372 12.372 0 003.575 3.619 11.419 11.419 0 004.614 1.761 11.67 11.67 0 005.129-.41l140.236-42.915a8.928 8.928 0 003.524-2.084 11.321 11.321 0 002.457-3.479 13.853 13.853 0 001.183-4.389 15.013 15.013 0 00-.3-4.826l-62.519-276.672a13.24 13.24 0 00-1.641-3.993 14.28 14.28 0 00-2.755-3.263 12.963 12.963 0 00-3.5-2.209 10.148 10.148 0 00-3.882-.821" fill="#1a1818"/><path data-name="Path 378" d="M484.281 4612.922l34.081-.415a3.2 3.2 0 001.408-.332 2.86 2.86 0 001.021-.869 3.141 3.141 0 00.541-1.273 3.952 3.952 0 00-.03-1.547 1.746 1.746 0 01-.015-.7 1.4 1.4 0 01.24-.569 1.268 1.268 0 01.454-.386 1.4 1.4 0 01.622-.145l39.292-.269a1.564 1.564 0 01.613.125 2.038 2.038 0 01.556.351 2.247 2.247 0 01.439.524 2.1 2.1 0 01.262.645l57.229 256.532a2.328 2.328 0 01.044.764 2.116 2.116 0 01-.19.688 1.724 1.724 0 01-.391.538 1.344 1.344 0 01-.557.31L486.842 4903a1.775 1.775 0 01-.787.033 1.845 1.845 0 01-.707-.3 2.033 2.033 0 01-.547-.576 2.275 2.275 0 01-.313-.8l-54.883-292.16a1.747 1.747 0 01.014-.732 1.5 1.5 0 01.3-.6 1.488 1.488 0 01.529-.4 1.714 1.714 0 01.707-.152l46.072-.316a1.964 1.964 0 01.73.141 2.333 2.333 0 01.654.393 2.449 2.449 0 01.507.586 2.208 2.208 0 01.288.719 4.843 4.843 0 00.641 1.6 5.447 5.447 0 001.135 1.3 5.27 5.27 0 001.467.871 4.428 4.428 0 001.638.305m77.146-8.6l-39.287.192a3.169 3.169 0 00-1.4.318 2.816 2.816 0 00-1.022.855 3.1 3.1 0 00-.544 1.268 3.924 3.924 0 00.03 1.551 1.75 1.75 0 01.014.692 1.387 1.387 0 01-.24.569 1.26 1.26 0 01-.452.388 1.41 1.41 0 01-.627.147l-34.075.346a1.934 1.934 0 01-.724-.138 2.321 2.321 0 01-.65-.389 2.44 2.44 0 01-.5-.581 2.155 2.155 0 01-.285-.713 4.884 4.884 0 00-.641-1.6 5.459 5.459 0 00-1.133-1.3 5.269 5.269 0 00-1.468-.874 4.45 4.45 0 00-1.647-.315l-46.062.224a4.006 4.006 0 00-1.635.341 3.427 3.427 0 00-1.221.917 3.356 3.356 0 00-.688 1.355 3.848 3.848 0 00-.037 1.656l54.818 292.824a5.112 5.112 0 00.714 1.823 4.557 4.557 0 001.262 1.3 4.146 4.146 0 001.628.667 4.13 4.13 0 001.816-.09l133.076-36.454a3.132 3.132 0 001.274-.707 3.9 3.9 0 00.895-1.22 4.822 4.822 0 00.439-1.562 5.315 5.315 0 00-.1-1.735l-57.245-256.024a4.835 4.835 0 00-.6-1.457 5.156 5.156 0 00-1-1.186 4.648 4.648 0 00-1.271-.8 3.626 3.626 0 00-1.4-.289" fill="#1a1818"/><path data-name="Path 379" d="M545.358 4905.533a2.136 2.136 0 01-.98.051 2.257 2.257 0 01-.889-.378 2.629 2.629 0 01-.7-.735 3.05 3.05 0 01-.408-1.025 3.276 3.276 0 01-.027-1.133 3.2 3.2 0 01.34-1.031 2.824 2.824 0 01.645-.816 2.361 2.361 0 01.892-.484l31.057-8.794a1.969 1.969 0 01.927-.038 2.181 2.181 0 01.843.372 2.59 2.59 0 01.669.714 2.956 2.956 0 01.4.989 3.192 3.192 0 01.041 1.091 3.115 3.115 0 01-.308.995 2.674 2.674 0 01-.6.786 2.166 2.166 0 01-.838.467l-31.065 8.969m29.4-16.88l-31.053 8.712a4.623 4.623 0 00-1.744.938 5.487 5.487 0 00-1.267 1.581 6.211 6.211 0 00-.669 2.007 6.344 6.344 0 00.052 2.215 5.83 5.83 0 00.8 2 5.051 5.051 0 001.363 1.431 4.391 4.391 0 001.736.728 4.208 4.208 0 001.917-.106l31.068-9.052a4.266 4.266 0 001.633-.912 5.175 5.175 0 001.164-1.529 6 6 0 00.592-1.93 6.27 6.27 0 00-.083-2.125 5.819 5.819 0 00-.774-1.924 5 5 0 00-1.292-1.387 4.2 4.2 0 00-1.638-.722 3.846 3.846 0 00-1.8.073" fill="#1a1818"/><path data-name="Path 380" d="M492.112 4853.65l-36.794-191.7 106.454-5.8 38.005 172.915-107.665 24.585m71.161-199.794l-110.836 5.805 37.727 197.208 112.13-25.883-39.024-177.13" fill="#1a1818"/><path data-name="Path 382" d="M466.343 4630.082l-16.2.438.289 1.5 16.2-.46-.291-1.482" fill="#1a1818"/><path data-name="Path 383" d="M467.165 4634.268l-16.2.5.287 1.5 16.205-.52-.29-1.475" fill="#1a1818"/><path data-name="Path 384" d="M467.986 4638.453l-16.209.559.288 1.5 16.212-.58-.29-1.478" fill="#1a1818"/><path data-name="Path 385" d="M601.571 4849.151a2.193 2.193 0 01-1.028.007 2.515 2.515 0 01-.938-.446 3.062 3.062 0 01-.745-.822 3.508 3.508 0 01-.452-1.117 3.573 3.573 0 01-.057-1.212 3.238 3.238 0 01.329-1.084 2.687 2.687 0 01.656-.835 2.239 2.239 0 01.924-.472 2.16 2.16 0 011.021 0 2.5 2.5 0 01.931.449 3.048 3.048 0 01.74.818 3.549 3.549 0 01.449 1.111 3.612 3.612 0 01.061 1.207 3.283 3.283 0 01-.323 1.081 2.685 2.685 0 01-.65.838 2.235 2.235 0 01-.917.477m-1.838-8.383a4.071 4.071 0 00-1.666.845 4.88 4.88 0 00-1.189 1.505 5.866 5.866 0 00-.6 1.956 6.5 6.5 0 00.1 2.2 6.341 6.341 0 00.817 2.018 5.535 5.535 0 001.351 1.483 4.553 4.553 0 001.7.8 3.915 3.915 0 001.853-.015 4.05 4.05 0 001.655-.865 4.879 4.879 0 001.17-1.515 5.885 5.885 0 00.582-1.95 6.5 6.5 0 00-.107-2.175 6.378 6.378 0 00-.812-2 5.541 5.541 0 00-1.335-1.474 4.551 4.551 0 00-1.678-.808 3.907 3.907 0 00-1.84 0" fill="#1a1818"/><path data-name="Path 386" d="M591.751 4851.594a2.239 2.239 0 01-1.043.007 2.559 2.559 0 01-.954-.449 3.09 3.09 0 01-.758-.828 3.508 3.508 0 01-.456-1.128 3.584 3.584 0 01-.052-1.226 3.257 3.257 0 01.341-1.1 2.784 2.784 0 01.672-.847 2.3 2.3 0 01.941-.478 2.231 2.231 0 011.042 0 2.565 2.565 0 01.948.45 3.105 3.105 0 01.754.826 3.51 3.51 0 01.454 1.122 3.59 3.59 0 01.054 1.221 3.283 3.283 0 01-.336 1.094 2.762 2.762 0 01-.667.849 2.322 2.322 0 01-.939.486m-1.834-8.471a4.194 4.194 0 00-1.7.858 4.983 4.983 0 00-1.216 1.524 5.932 5.932 0 00-.619 1.979 6.537 6.537 0 00.094 2.221 6.311 6.311 0 00.824 2.038 5.52 5.52 0 001.369 1.5 4.6 4.6 0 001.724.809 4.027 4.027 0 001.887-.019 4.19 4.19 0 001.691-.879 5.013 5.013 0 001.2-1.535 5.959 5.959 0 00.606-1.974 6.471 6.471 0 00-.1-2.2 6.3 6.3 0 00-.819-2.023 5.546 5.546 0 00-1.356-1.487 4.616 4.616 0 00-1.708-.812 4.027 4.027 0 00-1.876 0" fill="#1a1818"/><path data-name="Path 387" d="M581.74 4854.085a2.284 2.284 0 01-1.062.01 2.581 2.581 0 01-.966-.452 3.112 3.112 0 01-.765-.837 3.517 3.517 0 01-.459-1.139 3.63 3.63 0 01-.049-1.24 3.347 3.347 0 01.35-1.109 2.829 2.829 0 01.686-.856 2.37 2.37 0 01.958-.484 2.283 2.283 0 011.062 0 2.584 2.584 0 01.964.454 3.084 3.084 0 01.764.832 3.5 3.5 0 01.459 1.133 3.6 3.6 0 01.049 1.235 3.344 3.344 0 01-.347 1.107 2.841 2.841 0 01-.685.86 2.376 2.376 0 01-.958.492m-1.832-8.56a4.3 4.3 0 00-1.733.871 5.1 5.1 0 00-1.252 1.54 6 6 0 00-.641 2 6.519 6.519 0 00.085 2.246 6.317 6.317 0 00.831 2.059 5.607 5.607 0 001.392 1.509 4.686 4.686 0 001.753.813 4.132 4.132 0 001.919-.021 4.32 4.32 0 001.73-.894 5.115 5.115 0 001.231-1.555 6.027 6.027 0 00.622-2 6.469 6.469 0 00-.093-2.221 6.344 6.344 0 00-.824-2.045 5.54 5.54 0 00-1.373-1.5 4.671 4.671 0 00-1.735-.818 4.147 4.147 0 00-1.916.006" fill="#1a1818"/><path d="M477.065 4944.799l-64.247-348.982 159.269.456 67.516 298.786z" fill="none"/><path data-name="Path 391" d="M548.692 4623.005a8.853 8.853 0 00-3.971.989 8.2 8.2 0 00-2.9 2.545 9.308 9.308 0 00-1.537 3.732 11.678 11.678 0 00.112 4.533 14.215 14.215 0 001.828 4.5 15.188 15.188 0 003.126 3.613 13.817 13.817 0 003.972 2.354 11.066 11.066 0 004.37.738 8.811 8.811 0 003.946-1.079 8.23 8.23 0 002.822-2.6 9.372 9.372 0 001.456-3.721 11.745 11.745 0 00-.152-4.463 14.22 14.22 0 00-1.8-4.4 15.231 15.231 0 00-3.048-3.558 13.921 13.921 0 00-3.893-2.368 11.228 11.228 0 00-4.336-.814" fill="#ebf4f6"/><path data-name="Path 381" d="M549.833 4641.317a8.959 8.959 0 01-3.54-.606 11.184 11.184 0 01-3.216-1.912 12.3 12.3 0 01-2.53-2.927 11.532 11.532 0 01-1.482-3.637 9.467 9.467 0 01-.093-3.672 7.524 7.524 0 011.242-3.023 6.65 6.65 0 012.345-2.065 7.2 7.2 0 013.216-.807 9.072 9.072 0 013.519.654 11.245 11.245 0 013.164 1.916 12.287 12.287 0 012.478 2.887 11.512 11.512 0 011.462 3.574 9.519 9.519 0 01.12 3.625 7.6 7.6 0 01-1.189 3.019 6.67 6.67 0 01-2.3 2.1 7.137 7.137 0 01-3.2.869m-4.528-20.818a8.853 8.853 0 00-3.971.989 8.2 8.2 0 00-2.9 2.545 9.308 9.308 0 00-1.537 3.732 11.677 11.677 0 00.112 4.533 14.213 14.213 0 001.828 4.5 15.188 15.188 0 003.126 3.613 13.818 13.818 0 003.972 2.354 11.067 11.067 0 004.37.738 8.809 8.809 0 003.946-1.079 8.23 8.23 0 002.822-2.6 9.371 9.371 0 001.456-3.721 11.745 11.745 0 00-.152-4.463 14.219 14.219 0 00-1.8-4.4 15.232 15.232 0 00-3.048-3.558 13.922 13.922 0 00-3.893-2.368 11.229 11.229 0 00-4.336-.814" fill="#1a1818"/><path data-name="Path 392" d="M518.987 4719.969s30.7-5.527 57.987-44.022 62.374-13.644 68.221 12.669 11.138 66.759 119.317 67.734c2.923 0 0 12.849 0 12.849s-82.127 16.388-115.1-12.849-43.252 1.462-43.252 1.462-10.671 17.542-45.756 29.237-41.417-67.08-41.417-67.08z" fill="#fc9600"/><path data-name="Path 403" d="M765.738 4763.188c.242-4.107-2.192-8.333 6.156-11.11-.724 2.777-1.067 4.336-1.067 4.336s7.242 1.682 12.558 0c3.953 1.735 4.44 19.293-10.042 17.037s-7.845-6.158-7.605-10.263z" fill="none" stroke="#00202c" stroke-miterlimit="10" stroke-width="2"/><path data-name="Rectangle 199" fill="#ebf4f6" d="M810.679 4733.07h12.806v14.776h-12.806z"/><path data-name="Rectangle 198" fill="#ebf4f6" d="M810.679 4777.397h12.806v14.776h-12.806z"/><g data-name="Rectangle 196" fill="none" stroke="#00202c" stroke-width="2"><path d="M808.709 4732.085h12.806v14.776h-12.806z" stroke="none"/><path d="M809.709 4733.085h10.806v12.776h-10.806z"/></g><g data-name="Rectangle 197" fill="none" stroke="#00202c" stroke-width="2"><path d="M808.709 4776.412h12.806v14.776h-12.806z" stroke="none"/><path d="M809.709 4777.412h10.806v12.776h-10.806z"/></g><path data-name="Path 404" d="M828.626 4741.582s4.788-5.787 8.634-5.338 3.572 4.453 8.32 5.338 9.733-5.338 9.733-5.338" fill="none" stroke="#00202c" stroke-width="2"/><path data-name="Path 405" d="M828.626 4789.85s4.788-5.787 8.634-5.338 3.572 4.453 8.32 5.338 9.733-5.338 9.733-5.338" fill="none" stroke="#00202c" stroke-width="2"/><path data-name="Path 406" d="M830.238 4779.973s3.856-3.57 6.954-3.293 2.876 2.747 6.7 3.293 7.838-3.293 7.838-3.293" fill="none" stroke="#00202c" stroke-width="2"/><path data-name="Path 407" d="M740.733 4690.77c2.694.093 1.586 5.381 1.586 5.381s6.481 1.576 11.512-.829c4.156 1.168 4.751 17.815-9.9 17.6-5.774-.086-9.834-3.716-10.161-8.307-.462-6.329 4.269-13.938 6.963-13.845z" fill="none" stroke="#00202c" stroke-miterlimit="10" stroke-width="2"/><path data-name="Path 409" d="M519.972 4717.998s30.7-5.527 57.987-44.022 62.374-13.644 68.221 12.669 11.138 66.759 119.317 67.734c2.923 0 0 12.849 0 12.849s-82.127 16.388-115.1-12.849-43.252 1.462-43.252 1.462-10.671 17.542-45.756 29.237-41.417-67.08-41.417-67.08z" fill="none" stroke="#00202c" stroke-linecap="round" stroke-miterlimit="10" stroke-width="2"/><path data-name="Path 395" d="M627.547 4670.735l7.069-7.861 11.7 5.684s13.572-8.763 19.857-22.9 5.285-33.65 5.285-33.65l-26.77 5.975-1.403 8.949s-3.115-7.783-8.986-5.927-2.458 19.144-2.458 19.144l-3.582 5.231-8.15-.389-9.844 15.239s1.886 5.87 6.206 8.496 11.076 2.01 11.076 2.01z" fill="#fbb99f"/><path data-name="Path 396" d="M618.563 4645.377l-6.25-16.034 12.496-38.46 30.788-1.886 19.468 13.01 11.734 5.028-14.175 10.339-3.844-3.17-23.254 7.87-4.92 7.055s-2.672-9.146-7.634-6.62-2.246 17.332-2.246 17.332l-4.478 6.209z" fill="#0b2631"/><path data-name="Path 393" d="M637.774 4675.12s11.821 36.97 34.7 44.98 56.817-12.938 56.817-12.938l4.82 9.684s4.123 3.717 14.769 3.065c-26.9 27.367-63.522 35.4-96.107 24.857s-57.929-66.2-57.929-66.2z" fill="#fc9600"/><path data-name="Path 410" d="M636.789 4674.134s11.821 36.97 34.7 44.98 56.817-12.938 56.817-12.938l4.82 9.684s4.123 3.717 14.769 3.065c-26.9 27.367-63.522 35.4-96.107 24.857s-57.929-66.2-57.929-66.2z" fill="none" stroke="#00202c" stroke-miterlimit="10" stroke-width="2"/><path data-name="Path 411" d="M645.289 4690.069l-8.135-17.974-19.169.351-28.367 1.021 1.225 21.021 19.591 28.57 37.989-22.655z" fill="#fc9600"/><path data-name="Path 412" d="M527.367 4709.302l49.225 78.98-47.25 13.451-27.247-89.672z" fill="#fc9600"/><path data-name="Path 413" d="M517.37 4709.302s-5.715 10.692 5.1 16" fill="none" stroke="#00202c" stroke-linecap="round" stroke-width="2"/><path data-name="Path 414" d="M510.942 4714.337s-4.229 7.912 3.775 11.838" fill="none" stroke="#00202c" stroke-linecap="round" stroke-width="2"/><path data-name="Path 415" d="M564.325 4786.112s6.654 6.017 12.4-.799" fill="none" stroke="#00202c" stroke-linecap="round" stroke-width="2"/><path data-name="Path 416" d="M625.577 4670.735l7.069-7.861 11.7 5.684s13.572-8.763 19.857-22.9 5.285-33.65 5.285-33.65l-26.77 5.975-1.403 8.949s-3.115-7.783-8.986-5.927-2.458 19.144-2.458 19.144l-3.582 5.231-8.15-.389-9.844 15.239s1.886 5.87 6.206 8.496 11.076 2.01 11.076 2.01z" fill="none" stroke="#00202c" stroke-width="2"/><path data-name="Path 419" d="M745.33 4696.284l1.395-16.116s-6.497-1.002-11.24 1.213c-6.31-7.505-8.55-24.855-5.455-33.056 38.94-5.95 64.617-28.565 64.617-28.565s-7 24.505 11.853 53.868" fill="none" stroke="#00202c" stroke-linecap="round" stroke-width="2"/><g data-name="Ellipse 37" transform="rotate(-11 24350.14 -1769.232)" fill="none" stroke="#00202c" stroke-width="2"><ellipse cx="17.238" cy="40.387" rx="17.238" ry="40.387" stroke="none"/><ellipse cx="17.238" cy="40.387" rx="16.238" ry="39.387"/></g><path data-name="Path 420" d="M813.758 4688.965c-31.332-13.958-60.717-7.923-60.717-7.923v14.53" fill="none" stroke="#00202c" stroke-width="2"/><ellipse data-name="Ellipse 39" cx="4.433" cy="6.895" rx="4.433" ry="6.895" transform="rotate(-10.02 26884.528 -2290.416)" fill="#fc9600"/><g data-name="Ellipse 38" transform="rotate(-10.02 26872.308 -2280.165)" fill="none" stroke="#00202c" stroke-width="2"><ellipse cx="4.433" cy="6.895" rx="4.433" ry="6.895" stroke="none"/><ellipse cx="4.433" cy="6.895" rx="3.433" ry="5.895"/></g><path data-name="Path 421" d="M810.68 4641.439a19.853 19.853 0 01-10.245 0" fill="none" stroke="#00202c" stroke-linecap="round" stroke-width="2"/><path data-name="Path 422" d="M812.65 4652.939s-6.366.365-8.748 5.4" fill="none" stroke="#00202c" stroke-linecap="round" stroke-width="2"/><circle data-name="Ellipse 40" cx="9.358" cy="9.358" r="9.358" transform="translate(685.578 4818.77)" fill="#23decd"/><g data-name="Ellipse 41" transform="translate(461.971 4540)" fill="#fff" stroke="#00202c" stroke-width="2"><circle cx="6.403" cy="6.403" r="6.403" stroke="none"/><circle cx="6.403" cy="6.403" r="5.403" fill="none"/></g><g data-name="Group 357" fill="none" stroke="#00202c" stroke-width="2"><path data-name="Line 3" d="M751.084 4589.443v12.424"/><path data-name="Line 4" d="M757.296 4595.655h-12.424"/></g><g data-name="Group 358" fill="none" stroke="#00202c" stroke-width="2"><path data-name="Line 3" d="M742.218 4833.736v12.424"/><path data-name="Line 4" d="M748.43 4839.948h-12.424"/></g><g data-name="Group 359" fill="none" stroke="#00202c" stroke-width="2"><path data-name="Line 3" d="M400.406 4787.438v12.424"/><path data-name="Line 4" d="M406.618 4793.65h-12.424"/></g><g data-name="Ellipse 42" transform="translate(681.638 4814.829)" fill="none" stroke="#00202c" stroke-width="2"><circle cx="10.343" cy="10.343" r="10.343" stroke="none"/><circle cx="10.343" cy="10.343" r="9.343"/></g></g></svg>