<?xml version="1.0" encoding="utf-8"?>
<!-- Generator: Adobe Illustrator 23.0.3, SVG Export Plug-In . SVG Version: 6.00 Build 0)  -->
<svg version="1.1" id="Layer_1" xmlns="http://www.w3.org/2000/svg" xmlns:xlink="http://www.w3.org/1999/xlink" x="0px" y="0px"
	 width="52px" height="52px" viewBox="0 0 52 52" style="enable-background:new 0 0 52 52;" xml:space="preserve">
<style type="text/css">
	.st0{fill:#9BB9C6;}
</style>
<g id="icon-team" transform="translate(0 -68.066)">
	<g id="Group_106" transform="translate(39.889 84.355)">
		<g id="Group_105">
			<path id="Path_184" class="st0" d="M6,7.8C4.3,7.2,2.5,6.9,0.8,6.9C0.3,6.9,0,7.3,0,7.7c0,0.4,0.3,0.7,0.7,0.7
				c1.5,0,3.1,0.2,4.5,0.7c0.4,0.2,0.8,0,1-0.4C6.5,8.4,6.4,8,6,7.8L6,7.8z"/>
		</g>
	</g>
	<g id="Group_108" transform="translate(0 68.066)">
		<g id="Group_107">
			<path id="Path_185" class="st0" d="M49.7,34.9L46.5,34c-0.1,0-0.2-0.2-0.2-0.3v-1c0.3-0.2,0.5-0.4,0.7-0.6
				c1.1-1.1,1.7-2.5,1.7-4.1v-1.4L49,26c0.3-0.7,0.5-1.4,0.5-2.2v-3.9c0-0.4-0.3-0.8-0.8-0.8c0,0,0,0,0,0h-7.3
				c-2.7,0-4.8,2.2-4.8,4.8v0c0,0.6,0.1,1.2,0.4,1.8l0.4,0.8v1.2c0,1.9,0.9,3.7,2.4,4.8v1.1c0,0.2,0,0.2-0.6,0.4l-1.5,0.4L33.3,33
				c0-0.2-0.1-0.4-0.2-0.6l-1.4-1.5v-2.5c0.1-0.1,0.3-0.3,0.4-0.4c1.8-1.7,2.8-4,2.8-6.5v-2c0.5-1.2,0.8-2.4,0.8-3.7V7.7
				c0-0.4-0.3-0.8-0.8-0.8c0,0,0,0,0,0H23.6c-4,0-7.3,3.3-7.3,7.3v1.6c0,1.3,0.3,2.5,0.8,3.7v1.7c0,2.7,1.2,5.3,3.3,7.1v2.6
				l-1.4,1.5c-0.1,0.2-0.2,0.4-0.2,0.6L14,34.7c-0.3,0.1-0.7,0.3-0.9,0.5l-0.7-0.4c1.2-0.4,2.2-1.3,2.9-2.4c0.1-0.2,0.1-0.5,0-0.7
				c-0.5-1.5-0.7-3.1-0.7-4.7c0-0.5,0-1-0.1-1.5c-0.1-3.5-2.9-6.3-6.5-6.4c-3.5,0.1-6.3,2.9-6.5,6.4c0,0.5,0,1-0.1,1.5
				c0.1,1.6-0.2,3.2-0.7,4.7c-0.1,0.2-0.1,0.5,0,0.7c0.7,1.1,1.7,1.9,2.9,2.4l-2,1C0.7,36.4,0,37.5,0,38.7v5.6
				c0,0.4,0.4,0.7,0.8,0.7c0.4,0,0.7-0.3,0.7-0.7v-5.6c0-0.6,0.4-1.2,0.9-1.5L5,35.9l0.9,0.8c1.2,1.2,3.2,1.2,4.4,0l0.9-0.8l0.8,0.4
				c-0.4,0.6-0.6,1.4-0.6,2.1v5.9c0,0.4,0.4,0.7,0.8,0.7c0.4,0,0.7-0.3,0.7-0.7v-5.9c0-1,0.7-2,1.6-2.3l4.9-1.8l2.1,3.1
				c0.3,0.4,0.7,0.6,1.2,0.7c0.1,0,0.1,0,0.2,0c0.4,0,0.8-0.2,1.1-0.5l1.3-1.3v7.9c0,0.4,0.4,0.7,0.8,0.7c0.4,0,0.7-0.3,0.7-0.7
				v-7.9l1.3,1.3c0.3,0.3,0.7,0.5,1.1,0.5c0.1,0,0.1,0,0.2,0c0.5,0,0.9-0.3,1.2-0.7l2.1-3.1l4.9,1.8c1,0.4,1.6,1.3,1.6,2.3v5.9
				c0,0.4,0.3,0.8,0.7,0.8s0.8-0.3,0.8-0.7c0,0,0,0,0-0.1v-5.9c0-1-0.4-2-1.1-2.8l0.2-0.1c0.2-0.1,0.5-0.1,0.7-0.3l1.9,1.9v7
				c0,0.4,0.3,0.8,0.7,0.8s0.8-0.3,0.8-0.7c0,0,0,0,0-0.1v-7l1.9-1.9c0.1,0.1,0.2,0.1,0.3,0.1l3.1,0.9c0.7,0.2,1.2,0.9,1.2,1.6v6.3
				c0,0.4,0.4,0.7,0.8,0.7c0.4,0,0.7-0.3,0.7-0.7V38C52,36.6,51,35.3,49.7,34.9z M4.9,33.6c-0.9-0.3-1.8-0.8-2.4-1.6
				c0.2-0.6,0.4-1.2,0.4-1.8c0.4,1,1.1,1.9,2,2.5L4.9,33.6z M9.3,35.7c-0.6,0.6-1.7,0.6-2.3,0L6.2,35c0.1-0.2,0.2-0.5,0.2-0.7v-0.8
				c1.1,0.3,2.3,0.3,3.4,0v0.8c0,0.3,0.1,0.5,0.2,0.7L9.3,35.7z M8.1,32.2C5.8,32.2,4,30.3,4,28c0-0.4-0.3-0.8-0.8-0.8
				c0,0-0.1,0-0.1,0c0-0.1,0-0.1,0-0.2c0-0.5,0-1,0.1-1.4c0.1-1.3,0.6-2.6,1.5-3.6c1.8-1.9,4.8-1.9,6.7-0.1c0,0,0.1,0.1,0.1,0.1
				c0.9,1,1.5,2.2,1.5,3.6c0,0.4,0,0.9,0.1,1.4v0.1c-0.9-1.3-2.2-2.3-3.8-2.7C8.4,24.2,7.4,24,6.4,24c-0.2,0-0.4,0.1-0.5,0.2
				l-1.4,1.4c-0.3,0.3-0.3,0.8,0,1.1c0.3,0.3,0.8,0.3,1.1,0l1.1-1.2c1,0,4.2,0.4,5.4,3.1C11.9,30.7,10.1,32.2,8.1,32.2L8.1,32.2z
				 M11.3,33.6v-0.9c0.9-0.6,1.6-1.5,2-2.5c0.1,0.6,0.2,1.2,0.4,1.8C13.1,32.8,12.2,33.3,11.3,33.6L11.3,33.6z M18.6,21.2v-1.9
				c0-0.1,0-0.2-0.1-0.3c-0.5-1-0.7-2.1-0.7-3.2v-1.6c0-3.2,2.6-5.8,5.8-5.8h10.6v7.4c0,1.1-0.3,2.2-0.7,3.2c0,0.1-0.1,0.2-0.1,0.3
				v2.2c0,2-0.8,4-2.3,5.4c-0.2,0.2-0.4,0.3-0.6,0.5l0,0c-1.4,1.1-3.2,1.6-4.9,1.5C21.6,28.5,18.6,25.2,18.6,21.2L18.6,21.2z
				 M22.9,36.6C22.9,36.6,22.9,36.6,22.9,36.6C22.9,36.6,22.8,36.6,22.9,36.6L20.5,33l0.8-0.8l3.6,2.5L22.9,36.6z M26,33.6l-4.1-2.8
				v-1.4c1.1,0.6,2.3,0.9,3.5,1c0.2,0,0.4,0,0.6,0c1.4,0,2.8-0.3,4.1-1v1.4L26,33.6z M29.2,36.6C29.2,36.6,29.2,36.6,29.2,36.6
				C29.1,36.6,29.1,36.6,29.2,36.6l-2-1.9l3.6-2.5l0.8,0.8L29.2,36.6z M43.1,35.9l-1.7-1.7c0-0.1,0-0.3,0-0.5v-0.3
				c0.5,0.2,1,0.3,1.5,0.3h0.2c0.6,0,1.1-0.1,1.7-0.3v0.3c0,0.1,0,0.3,0.1,0.4L43.1,35.9z M46,31c-0.8,0.8-1.9,1.2-3,1.2
				c-2.3-0.1-4-2-4-4.3v-1.4c0-0.1,0-0.2-0.1-0.3l-0.5-0.9c-0.2-0.3-0.3-0.7-0.3-1.1v0c0-1.8,1.5-3.3,3.3-3.3H48v3.2
				c0,0.5-0.1,1-0.3,1.5l-0.4,0.8c-0.1,0.1-0.1,0.2-0.1,0.3V28C47.2,29.2,46.8,30.2,46,31L46,31z"/>
		</g>
	</g>
	<g id="Group_110" transform="translate(47.219 99.829)">
		<g id="Group_109">
			<path id="Path_186" class="st0" d="M0.8,6.9C0.3,6.9,0,7.3,0,7.7v4.9c0,0.4,0.3,0.8,0.7,0.8s0.8-0.3,0.8-0.7c0,0,0,0,0-0.1V7.7
				C1.5,7.3,1.2,6.9,0.8,6.9z"/>
		</g>
	</g>
	<g id="Group_112" transform="translate(3.258 100.836)">
		<g id="Group_111">
			<path id="Path_187" class="st0" d="M0.8,6.9C0.3,6.9,0,7.3,0,7.7v3.9c0,0.4,0.3,0.8,0.7,0.8s0.8-0.3,0.8-0.7c0,0,0,0,0-0.1V7.7
				C1.5,7.3,1.2,6.9,0.8,6.9z"/>
		</g>
	</g>
	<g id="Group_114" transform="translate(19.547 74.986)">
		<g id="Group_113">
			<path id="Path_188" class="st0" d="M12.7,9.2c-2.9-2.9-8.9-2.3-11.4-2C0.6,7.3,0,8,0,8.8v1.8c0,0.4,0.4,0.7,0.8,0.7
				c0.4,0,0.7-0.3,0.7-0.7V8.8c0,0,0,0,0-0.1c1.6-0.3,3.3-0.3,4.9-0.2c2.4,0.2,4.1,0.8,5.1,1.8c0.3,0.3,0.8,0.3,1.1,0
				C13,9.9,13,9.5,12.7,9.2L12.7,9.2z"/>
		</g>
	</g>
	<g id="Group_116" transform="translate(16.289 101.458)">
		<g id="Group_115">
			<path id="Path_189" class="st0" d="M0.8,6.9C0.3,6.9,0,7.3,0,7.7v3.3c0,0.4,0.4,0.7,0.8,0.7c0.4,0,0.7-0.3,0.7-0.7V7.7
				C1.5,7.3,1.2,6.9,0.8,6.9z"/>
		</g>
	</g>
	<g id="Group_118" transform="translate(34.207 101.458)">
		<g id="Group_117">
			<path id="Path_190" class="st0" d="M0.8,6.9C0.3,6.9,0,7.3,0,7.7v3.3c0,0.4,0.4,0.7,0.8,0.7c0.4,0,0.7-0.3,0.7-0.7V7.7
				C1.5,7.3,1.2,6.9,0.8,6.9z"/>
		</g>
	</g>
</g>
</svg>
