<?xml version="1.0" encoding="utf-8"?>
<!-- Generator: Adobe Illustrator 23.0.3, SVG Export Plug-In . SVG Version: 6.00 Build 0)  -->
<svg version="1.1" id="Layer_1" xmlns="http://www.w3.org/2000/svg" xmlns:xlink="http://www.w3.org/1999/xlink" x="0px" y="0px"
	 width="52px" height="52px" viewBox="0 0 52 52" style="enable-background:new 0 0 52 52;" xml:space="preserve">
<style type="text/css">
	.st0{fill-rule:evenodd;clip-rule:evenodd;fill:#9BB9C6;}
</style>
<g id="icon-not-targeting" transform="translate(-514.697 -467.723)">
	<path id="Path_364" class="st0" d="M540.7,514.7c-11.6,0-21-9.4-21-21s9.4-21,21-21s21,9.4,21,21l0,0
		C561.7,505.3,552.3,514.7,540.7,514.7z M528.3,507.7l0.3,0.3c3.4,2.9,7.6,4.4,12,4.4h0c10.3,0,18.7-8.4,18.7-18.7
		c0-4.4-1.6-8.7-4.4-12.1l-0.3-0.3L528.3,507.7z M540.7,475c-10.3,0-18.7,8.4-18.7,18.7c0,4.4,1.6,8.7,4.4,12.1l0.3,0.3l26.4-26.4
		l-0.3-0.3C549.4,476.6,545.1,475,540.7,475L540.7,475z"/>
</g>
</svg>
