<?xml version="1.0" encoding="utf-8"?>
<!-- Generator: Adobe Illustrator 23.0.3, SVG Export Plug-In . SVG Version: 6.00 Build 0)  -->
<svg version="1.1" id="Layer_1" xmlns="http://www.w3.org/2000/svg" xmlns:xlink="http://www.w3.org/1999/xlink" x="0px" y="0px"
	 width="52px" height="52px" viewBox="0 0 52 52" style="enable-background:new 0 0 52 52;" xml:space="preserve">
<style type="text/css">
	.st0{fill-rule:evenodd;clip-rule:evenodd;fill:#9BB9C6;}
</style>
<g id="icon-scale" transform="translate(-514.497 -360.301)">
	<g id="Group_245" transform="translate(522.636 360.301)">
		<path id="Path_360" class="st0" d="M6.1,40.8c-2.3,0-4.2-1.8-4.2-4.1s1.8-4.2,4.1-4.2c0,0,0.1,0,0.1,0c0.6,0,1.2,0.1,1.7,0.4
			L8.1,33l5.4-6.2l-0.1-0.2c-1.1-2-0.3-4.5,1.7-5.6c0.4-0.2,0.8-0.3,1.2-0.4c1.6-0.3,3.3,0.4,4.2,1.8l0.2,0.3l7.5-3L28,19
			c-0.4-2.2,1-4.4,3.3-4.8c0.3,0,0.5-0.1,0.8-0.1c0.4,0,0.9,0.1,1.3,0.2l0.3,0.1l3.7-8.3l-3.2,1.4c-0.1,0-0.2,0.1-0.3,0.1
			c-0.4,0-0.8-0.4-0.8-0.8c0-0.3,0.2-0.6,0.5-0.7L38.3,4c0.4-0.2,0.9,0,1,0.4l2.1,4.7c0.2,0.4,0,0.9-0.4,1c-0.1,0-0.2,0.1-0.3,0.1
			c-0.3,0-0.6-0.2-0.7-0.5l-1.3-2.8L35,15.3l0.2,0.2c1.5,1.7,1.3,4.3-0.4,5.8c-0.5,0.5-1.2,0.8-1.9,0.9c-0.3,0-0.5,0.1-0.8,0.1
			c-1.1,0-2.1-0.4-2.9-1.2L28.9,21l-7.8,3.2l0,0.3c0.1,2.3-1.6,4.2-3.9,4.4c-0.1,0-0.2,0-0.3,0c-0.7,0-1.5-0.2-2.1-0.6L14.6,28
			l-5.2,6l0.2,0.3c1.3,1.9,0.8,4.5-1.1,5.8C7.8,40.5,7,40.8,6.1,40.8L6.1,40.8z M6.1,34.1c-0.2,0-0.3,0-0.5,0
			C5,34.3,4.4,34.7,4,35.2c-0.4,0.6-0.5,1.2-0.4,1.9c0.2,1.2,1.3,2.1,2.5,2.1c0.2,0,0.3,0,0.5,0c1.4-0.3,2.3-1.6,2-3c0,0,0,0,0,0
			C8.4,35,7.4,34.1,6.1,34.1z M17,22.1c-0.2,0-0.3,0-0.5,0c-1.4,0.3-2.3,1.6-2,3s1.6,2.3,3,2c0.7-0.1,1.2-0.5,1.6-1.1
			c0.4-0.6,0.5-1.2,0.4-1.9C19.3,23,18.2,22.1,17,22.1L17,22.1z M32,15.7c-1.4,0-2.5,1.1-2.5,2.5s1.1,2.5,2.5,2.5c0.2,0,0.3,0,0.5,0
			c1.4-0.3,2.3-1.6,2-3C34.3,16.6,33.3,15.7,32,15.7L32,15.7z"/>
	</g>
	<path id="Path_361" class="st0" d="M563.3,403.9h-41.9V367c0-0.7-0.5-1.2-1.2-1.2s-1.2,0.5-1.2,1.2v36.9h-1.4
		c-0.7,0-1.2,0.5-1.2,1.2s0.5,1.2,1.2,1.2h1.4v0.9c0,0.7,0.5,1.2,1.2,1.2s1.2-0.5,1.2-1.2l0,0v-0.9h41.9c0.7,0,1.2-0.5,1.2-1.2
		S564,403.9,563.3,403.9z"/>
</g>
</svg>
