<?xml version="1.0" encoding="utf-8"?>
<!-- Generator: Adobe Illustrator 23.0.3, SVG Export Plug-In . SVG Version: 6.00 Build 0)  -->
<svg version="1.1" id="Layer_1" xmlns="http://www.w3.org/2000/svg" xmlns:xlink="http://www.w3.org/1999/xlink" x="0px" y="0px"
	 width="52px" height="52px" viewBox="0 0 52 52" style="enable-background:new 0 0 52 52;" xml:space="preserve">
<style type="text/css">
	.st0{fill-rule:evenodd;clip-rule:evenodd;fill:#9BB9C6;}
</style>
<g id="icon-defensible-advantage" transform="translate(-175.165 -359.69)">
	<g id="Group_238" transform="translate(175.165 359.69)">
		<path id="Path_354" class="st0" d="M14.8,50c-1.7,0-3.1-1.4-3.1-3.1v-0.3c0-1.2,0.7-2.3,1.8-2.8l0.3-0.1l0-0.3
			c-0.2-1.9-0.1-6.8,5-11.9c1.4-1.4,2.2-3.3,2.1-5.2l0-0.5l-0.5,0c-0.2,0-0.8,0-0.8,0l-6.8,4.5c-0.3,0.2-0.8,0.2-1-0.1L7,25.6
			c-0.3-0.3-0.3-0.7-0.1-1L18.6,5.9c0.1-0.2,0.2-0.3,0.4-0.3l8-3.5C27.1,2,27.2,2,27.3,2c2.8,0.1,5.6,0.8,8.2,2
			c3.8,1.9,8.3,5.9,8.3,14.4c0,7.3-0.1,13.4-0.1,13.5c0,0.5-0.4,0.8-0.8,0.8h-4.6l0,0.4c-0.2,3.6,0.7,7.1,2.7,10l0.1,0.2h1
			c1.7,0,3.1,1.4,3.1,3.1v0.3c0,1.7-1.4,3.1-3.1,3.1L14.8,50z M14.8,45.1c-0.8,0-1.5,0.7-1.5,1.5v0.3c0,0.8,0.7,1.5,1.5,1.5h27.3
			c0.8,0,1.5-0.7,1.5-1.5v-0.3c0-0.8-0.7-1.5-1.5-1.5H14.8z M24.7,31.2c0.5,0,0.8,0.4,0.8,0.8c0,0.2-0.1,0.4-0.2,0.6
			c-4.1,4.1-4.6,7.9-4.6,9.9l0,0.4h18.1l-0.3-0.6c-2.3-4.4-2.1-8.1-1.7-13.6c0.2-2.4,0.3-5.1,0.3-8.4c0-4.2-1.3-7.5-3.8-9.7
			C29.8,7.5,24.5,7,21.6,7c-0.7,0-1.3,0-1.7,0.1l-0.2,0L10.4,22l0.1,0.2c0.1,0.1,0.1,0.3,0.1,0.5c0,0.2-0.1,0.4-0.2,0.6
			c-0.2,0.2-0.4,0.2-0.6,0.2l-0.3,0l-0.3,0.2l-0.8,1.2l3.7,3.7l6.5-4.3c0.1-0.1,0.3-0.1,0.5-0.1c2.4,0,4.2-0.7,5.3-2
			c1.9-2.4,1-6.3,1-6.3c-0.1-0.4,0.2-0.9,0.6-1h0.1c0.4-0.1,0.8,0.2,0.9,0.6c0,0.2,1.1,4.7-1.3,7.7c-0.8,1-1.9,1.8-3.1,2.2l-0.3,0.1
			v0.3c0.2,2.6-0.8,5.1-2.6,6.9c-4.1,4.1-4.6,7.9-4.6,9.9l0,0.4H19l0-0.4c0-2.2,0.6-6.6,5-11C24.2,31.3,24.4,31.2,24.7,31.2
			L24.7,31.2z M23.5,5.4L25,5.6c3.5,0.3,6.8,1.6,9.4,3.9c2.9,2.6,4.4,6.2,4.4,10.9c0,3.3-0.2,6.1-0.4,8.5l-0.1,2.3H42v-0.4
			c0-2.2,0.1-6.9,0.1-12.3c0-6.1-2.5-10.5-7.3-12.9c-2.3-1.1-4.7-1.8-7.3-1.9l-0.1,0L23.5,5.4z"/>
	</g>
	<path id="Path_355" class="st0" d="M194.8,374.4c-0.5-0.4-1.3-0.3-1.7,0.2l-0.5,0.7c-0.4,0.6-0.3,1.3,0.3,1.7
		c0.5,0.4,1.3,0.3,1.7-0.2l0.5-0.7C195.5,375.6,195.4,374.8,194.8,374.4z"/>
</g>
</svg>
