<?xml version="1.0" encoding="utf-8"?>
<!-- Generator: Adobe Illustrator 23.0.3, SVG Export Plug-In . SVG Version: 6.00 Build 0)  -->
<svg version="1.1" id="Layer_1" xmlns="http://www.w3.org/2000/svg" xmlns:xlink="http://www.w3.org/1999/xlink" x="0px" y="0px"
	 width="52px" height="52px" viewBox="0 0 52 52" style="enable-background:new 0 0 52 52;" xml:space="preserve">
<style type="text/css">
	.st0{fill:#EB6514;}
</style>
<path id="icon-canada-leaf" class="st0" d="M24,40.5c-0.8,0.2-10.8,1.8-10.8,1.8c0.6-1.2,1-2.5,1.2-3.9c0-1.4-2.8-3.3-6.1-6.1
	S3,28.1,3,27.9s2.2-0.2,2.2-1.8S3,18.2,3,18.2s4.5,1.6,5.7,1.6s3-2.4,3-4.1c0,0,5.9,7.3,7.1,6.7S16.6,7.6,16.6,7.6s3.5,3.1,4.7,2.8
	c1-0.4,4.5-8.9,4.5-8.9H26l0.2,0.2c0,0,3.5,8.5,4.5,8.9c1.2,0.4,4.7-2.8,4.7-2.8S31.9,22,33.1,22.6c1.2,0.4,7.1-6.9,7.1-6.9
	c0,1.8,1.8,4.1,3,4.1s5.7-1.6,5.7-1.6s-2.2,6.1-2.2,7.9c0,1.6,2.2,1.6,2.2,1.8s-2.2,1.6-5.3,4.5c-3.3,2.8-6.1,4.7-6.1,6.1
	c0.3,1.3,0.7,2.6,1.2,3.9c0,0-9.8-1.6-10.8-1.8c-0.8-0.2-1.6-0.2-1.6,1.6l0.4,8.3H25l0.4-8.3C25.4,40.3,24.8,40.3,24,40.5z"/>
</svg>
