<svg xmlns="http://www.w3.org/2000/svg" width="52" height="52"><defs><clipPath id="a"><path data-name="Rectangle 60" transform="translate(928 1644)" fill="#9bb9c6" d="M0 0h52v52H0z"/></clipPath></defs><g transform="translate(-928 -1644)" clip-path="url(#a)"><g data-name="005-north-america" fill="#9bb9c6"><path data-name="Path 148" d="M949.505 1693.863c-2.286 0-5.856-2.134-5.9-2.162a24.735 24.735 0 00-.443-.285c-1.479-.94-3.954-2.512-3.954-5.77 0-2.8-.712-3.514-2-4.806-.237-.237-.459-.444-.663-.635-.956-.895-1.859-1.739-1.328-3.335.1-.3.27-.742.47-1.265.647-1.684 1.73-4.5 1.73-6.1a2.7 2.7 0 00-.253-1.429h-8.351a.812.812 0 01-.813-.813v-2.242a.811.811 0 01.2-.535c.136-.156 3.387-3.826 7.236-4.307a14.859 14.859 0 017.411 1.318 57.963 57.963 0 002.4-.333.813.813 0 01.261 1.6c-1.32.215-2.656.365-2.712.371a.819.819 0 01-.452-.081 13.649 13.649 0 00-6.71-1.266c-2.746.343-5.294 2.8-6.014 3.549v1.112h7.711c.285 0 1.71.147 1.71 3.054 0 1.9-1.106 4.778-1.839 6.683-.19.494-.349.908-.445 1.2-.183.55-.1.7.9 1.635.215.2.45.421.7.672 1.385 1.385 2.479 2.48 2.479 5.955 0 2.366 1.849 3.54 3.2 4.4.169.108.328.21.473.306 1.586 1.058 4.695 2.161 5.288 1.866a1.653 1.653 0 00.383-1.279c-.542-.046-1.728-.5-2.875-5.094a2.574 2.574 0 00-.753-1.187 2.254 2.254 0 01-.53-2.961c1.021-2.041 4.164-1.063 5.673-.593.154.047.284.089.384.118.575-.306 1.927-1.6 1.927-2.3 0-2.268 5.021-3.02 5.7-3.053a14.935 14.935 0 00.125-2.775c0-2.444 1.8-2.782 2.878-2.984a2.531 2.531 0 00.946-.282 1.438 1.438 0 00-.02-1.132 2.86 2.86 0 00-2.229-1.975c-.829-.136-1.222.237-1.9.969-.727.789-1.721 1.869-3.608 1.241-2.146-.715-1.735-2.6-1.49-3.725.223-1.022.282-1.5-.086-1.776-.595-.447-.695-.4-1.168-.182a4.632 4.632 0 01-.862.321.813.813 0 01-.386-1.579 3.056 3.056 0 00.569-.219 2.347 2.347 0 012.823.358c1.242.931.928 2.371.7 3.422-.3 1.376-.245 1.617.416 1.837.853.283 1.18-.02 1.9-.8a3.486 3.486 0 013.359-1.472 4.481 4.481 0 013.509 3.082 2.747 2.747 0 01-.379 2.777 3.225 3.225 0 01-1.8.73c-1.153.217-1.552.344-1.552 1.386 0 2.837 0 4.4-1.71 4.4-1.032 0-3.9.882-4.124 1.464.005 1.72-2.534 3.916-3.5 3.916a3.34 3.34 0 01-.916-.218c-2.213-.688-3.47-.767-3.737-.231-.276.551-.225.605.259 1.119a4.12 4.12 0 011.155 1.906 9.851 9.851 0 001.55 3.87 1.419 1.419 0 011.225.923 3.117 3.117 0 01-.747 3.151 1.918 1.918 0 01-1.4.47zm.828-4.547zm1.641-8.05"/><path data-name="Path 149" d="M967.642 1664.749a2.391 2.391 0 01-.761-.13 8 8 0 00-1.384-.191c-1.34-.118-2.6-.229-2.945-1.163a1.607 1.607 0 01.6-1.7 14.122 14.122 0 011.8-1.525 3.1 3.1 0 00.521-.426 5.765 5.765 0 01.129-1.029c.093-.5.285-1.553 0-1.65a4.345 4.345 0 00-1.338-.078c-.732.03-1.489.058-1.843-.576a1.367 1.367 0 01.2-1.422 2.363 2.363 0 00.266-.515c.316-.809.646-.882 2.48-1.279l1.168-.256a25.366 25.366 0 016.153-.87.958.958 0 01.876.451.981.981 0 01-.024.986 5.7 5.7 0 001.371.275l.561.062c2.518.277 3.668.4 4.24 1.225a2.222 2.222 0 01.166 1.852 4.706 4.706 0 01-1.976 2.593 5.038 5.038 0 00-1.123 1.075 6.936 6.936 0 00-.487.845 3.278 3.278 0 01-1.446 1.514c-.218.146-.45.318-.684.492-.986.731-2.007 1.486-2.962 1.144a1.635 1.635 0 01-1.012-1.261 48.802 48.802 0 00-.206-.794l-.384.895a2.5 2.5 0 01-.555.863 1.946 1.946 0 01-1.405.593zm-3.286-2.09c.377.072.914.119 1.283.151a8.429 8.429 0 011.756.267c.3.1.416.017.5-.07a.914.914 0 00.177-.269.606.606 0 01.024-.063l1.281-2.988a.782.782 0 01.78-.492.813.813 0 01.737.555c.018.054.441 1.329.871 3.048a.985.985 0 00.028.1 7.219 7.219 0 001.4-.89c.258-.191.512-.379.751-.539.674-.45.716-.534.894-.888a8.5 8.5 0 01.588-1.02 6.343 6.343 0 011.472-1.452 3.278 3.278 0 001.4-1.708 1.241 1.241 0 00.069-.547 11.634 11.634 0 00-3.075-.521l-.563-.062c-1.61-.179-2.439-.529-2.773-1.168a1.233 1.233 0 01-.142-.513 31.552 31.552 0 00-4.928.813l-1.177.257c-.6.131-1.1.239-1.32.308a3.819 3.819 0 01-.115.269 5.238 5.238 0 011.839.164c1.625.542 1.273 2.456 1.085 3.484a5.285 5.285 0 00-.1.7c0 .9-.576 1.326-1.186 1.773a12.647 12.647 0 00-1.556 1.305zm0 0"/><path data-name="Path 150" d="M949.125 1667.262a.815.815 0 01-.62-.287c-.749-.887-7.326-8.773-7.326-12.892a7.947 7.947 0 0115.893 0c0 4.119-6.577 12.005-7.327 12.892a.814.814 0 01-.62.287zm0-19.5a6.329 6.329 0 00-6.322 6.322c0 2.7 4.112 8.355 6.322 11.09 2.21-2.735 6.322-8.384 6.322-11.09a6.329 6.329 0 00-6.322-6.322zm0 9.909a4.063 4.063 0 114.063-4.063 4.068 4.068 0 01-4.063 4.063zm0-6.5a2.437 2.437 0 102.434 2.437 2.44 2.44 0 00-2.434-2.437zm0 0"/></g></g></svg>