<svg xmlns="http://www.w3.org/2000/svg" width="52" height="52"><g data-name="Group 120"><g data-name="Group 119"><path data-name="Path 191" d="M32.067 30.333h-.953a.853.853 0 01-.8-.56 14.333 14.333 0 00-.341-.817.855.855 0 01.173-.967l.679-.68a2.606 2.606 0 000-3.674l-2.449-2.449a2.606 2.606 0 00-3.675 0l-.679.679a.858.858 0 01-.967.173c-.269-.122-.54-.236-.818-.347a.852.852 0 01-.562-.8v-.958a2.6 2.6 0 00-2.6-2.6H15.6a2.6 2.6 0 00-2.6 2.6v.953a.853.853 0 01-.56.8c-.277.106-.549.219-.817.341a.857.857 0 01-.967-.173l-.68-.679a2.606 2.606 0 00-3.674 0l-2.45 2.458a2.606 2.606 0 000 3.675l.679.679a.855.855 0 01.173.967c-.122.269-.236.54-.342.818a.852.852 0 01-.809.559H2.6A2.6 2.6 0 000 32.933V36.4A2.6 2.6 0 002.6 39h.953a.853.853 0 01.8.56c.106.277.219.549.341.817a.855.855 0 01-.173.967l-.679.68a2.606 2.606 0 000 3.674l2.449 2.449a2.606 2.606 0 003.675 0l.679-.679a.858.858 0 01.967-.173c.269.122.54.236.818.347a.852.852 0 01.567.8v.953a2.6 2.6 0 002.6 2.6h3.467a2.6 2.6 0 002.6-2.6v-.953a.853.853 0 01.56-.8c.277-.106.549-.219.817-.341a.857.857 0 01.967.173l.68.679a2.607 2.607 0 003.674 0l2.449-2.449a2.606 2.606 0 000-3.675l-.679-.679a.855.855 0 01-.173-.967c.122-.269.236-.54.347-.818a.852.852 0 01.8-.562h.953a2.6 2.6 0 002.6-2.6v-3.47a2.6 2.6 0 00-2.592-2.6zm.867 6.067a.867.867 0 01-.867.867h-.953a2.609 2.609 0 00-2.427 1.676q-.138.364-.3.717a2.608 2.608 0 00.52 2.909l.678.679a.867.867 0 010 1.226l-2.449 2.449a.867.867 0 01-1.225 0l-.679-.679a2.605 2.605 0 00-2.909-.52c-.235.107-.474.206-.715.3a2.608 2.608 0 00-1.675 2.425v.953a.867.867 0 01-.867.867H15.6a.867.867 0 01-.867-.867v-.953a2.609 2.609 0 00-1.676-2.427q-.364-.138-.717-.3a2.609 2.609 0 00-2.909.52l-.679.678a.867.867 0 01-1.226 0l-2.448-2.447a.867.867 0 010-1.226l.679-.679a2.608 2.608 0 00.52-2.909 14.008 14.008 0 01-.3-.715 2.608 2.608 0 00-2.425-1.678H2.6a.867.867 0 01-.867-.867v-3.466a.867.867 0 01.867-.867h.953A2.609 2.609 0 005.98 30.39q.138-.364.3-.717a2.608 2.608 0 00-.52-2.909l-.681-.679a.867.867 0 010-1.226l2.449-2.449a.867.867 0 011.225 0l.679.679a2.605 2.605 0 002.909.52c.235-.107.474-.206.715-.3a2.608 2.608 0 001.679-2.425v-.951a.867.867 0 01.867-.867h3.467a.867.867 0 01.867.867v.953a2.609 2.609 0 001.676 2.427q.364.138.717.3a2.605 2.605 0 002.909-.52l.679-.678a.872.872 0 011.226 0l2.449 2.449a.867.867 0 010 1.225l-.679.679a2.608 2.608 0 00-.52 2.909c.107.235.206.474.3.715a2.608 2.608 0 002.425 1.675h.953a.867.867 0 01.867.867v3.467z" fill="#9bb9c6"/></g></g><g data-name="Group 122"><g data-name="Group 121"><path data-name="Path 192" d="M25.117 34.32a7.565 7.565 0 00-.156-1.279c-.03-.141-.07-.281-.108-.421q-.073-.268-.164-.528-.064-.181-.132-.359a7.7 7.7 0 00-.382-.811c-.011-.02-.018-.042-.03-.062a7.68 7.68 0 00-.78-1.136c-.025-.031-.054-.061-.08-.091a7.614 7.614 0 00-.372-.409 13.956 13.956 0 00-.47-.437q-.158-.137-.322-.265l-.142-.106a7.745 7.745 0 00-4.645-1.549c-.087 0-.173.013-.26.016a7.44 7.44 0 00-.556.035c-.1.011-.2.022-.295.036a7.953 7.953 0 00-.84.157 7.8 7.8 0 00.006 15.114.2.2 0 01.043.008 8.3 8.3 0 00.908.173c.2.025.4.03.607.04.135.007.26.027.4.027.247 0 .5-.017.765-.043a.838.838 0 00.087-.011c.211-.023.424-.055.641-.1.087-.016.167-.038.25-.057.153-.035.3-.073.46-.119.121-.037.239-.079.358-.121s.242-.087.365-.133.226-.1.338-.152c.146-.067.29-.133.433-.211h.005a10.259 10.259 0 002.221-1.6 2.727 2.727 0 00.465-.568 9.253 9.253 0 001.305-3.562 7.567 7.567 0 00.083-.974c0-.049.007-.1.007-.146.004-.125-.008-.238-.013-.356zm-1.727.568c0 .072-.006.144-.01.215-.016.21-.042.419-.078.63a6.08 6.08 0 01-3.045 4.247 7.248 7.248 0 01-.319.158l-.072.035a6.264 6.264 0 01-1.581.479l-.116.018a5.187 5.187 0 01-.321.038c-.14.012-.28.019-.423.022h-.181a6.116 6.116 0 01-.614-.038l-.1-.012a6.461 6.461 0 01-.708-.133 6.067 6.067 0 01-.006-11.753 6.278 6.278 0 011.523-.191 6 6 0 01.741.05c.066.008.131.02.2.029.187.03.373.067.556.114.06.016.12.029.179.046a6.124 6.124 0 011.322.556c.067.039.132.08.2.12.137.087.27.173.4.272.07.051.141.1.209.156a6.249 6.249 0 01.488.433c.062.062.118.131.178.2.1.108.2.219.289.336a6.245 6.245 0 01.437.635l.131.216a5.952 5.952 0 01.3.635c.035.087.064.173.1.26.056.16.1.321.147.484.022.087.046.164.064.248a6.1 6.1 0 01.11.71c.005.063.005.127.01.191-.006.193-.003.393-.011.594z" fill="#9bb9c6"/></g></g><g data-name="Group 124"><g data-name="Group 123"><path data-name="Path 193" d="M49.4 18.2h-2.726a.846.846 0 01-.808-.569 18.049 18.049 0 00-.973-2.35.849.849 0 01.166-.978l1.933-1.935a2.6 2.6 0 000-3.676l-3.685-3.679a2.6 2.6 0 00-3.676 0l-1.932 1.931a.848.848 0 01-.978.167 18 18 0 00-2.35-.978.846.846 0 01-.572-.808V2.6a2.6 2.6 0 00-2.6-2.6h-5.2a2.6 2.6 0 00-2.6 2.6v2.726a.846.846 0 01-.569.808 18.06 18.06 0 00-2.35.978.847.847 0 01-.978-.166l-1.934-1.934a2.605 2.605 0 00-3.676 0L10.214 8.69a2.6 2.6 0 000 3.676l2.842 2.847a.867.867 0 001.227-1.224l-2.844-2.846a.867.867 0 010-1.225l3.679-3.678a.867.867 0 011.225 0l1.936 1.933a2.577 2.577 0 002.978.489 16.4 16.4 0 012.124-.883 2.578 2.578 0 001.752-2.453V2.6A.867.867 0 0126 1.733h5.2a.867.867 0 01.867.867v2.726a2.577 2.577 0 001.752 2.452 16.348 16.348 0 012.125.884 2.583 2.583 0 002.977-.49l1.936-1.932a.867.867 0 011.225 0l3.678 3.679a.867.867 0 010 1.225l-1.933 1.936a2.579 2.579 0 00-.489 2.978 16.4 16.4 0 01.883 2.124 2.577 2.577 0 002.453 1.752H49.4a.867.867 0 01.867.867V26a.867.867 0 01-.867.867h-2.726a2.577 2.577 0 00-2.452 1.752 16.324 16.324 0 01-.884 2.125 2.58 2.58 0 00.49 2.977l1.933 1.936a.867.867 0 010 1.225l-3.68 3.678a.867.867 0 01-1.225 0l-2.848-2.842a.867.867 0 00-1.245 1.206l.021.021 2.847 2.842a2.6 2.6 0 003.676 0l3.678-3.677a2.6 2.6 0 000-3.676l-1.93-1.934a.849.849 0 01-.167-.978 18 18 0 00.978-2.35.846.846 0 01.808-.572H49.4A2.6 2.6 0 0052 26v-5.2a2.6 2.6 0 00-2.6-2.6z" fill="#9bb9c6"/></g></g><g data-name="Group 126"><g data-name="Group 125"><path data-name="Path 194" d="M36.566 15.434a11.278 11.278 0 00-15.933 0 .867.867 0 001.225 1.225A9.533 9.533 0 0135.43 30.051l-.09.09a.867.867 0 101.2 1.247l.021-.021a11.278 11.278 0 00.005-15.933z" fill="#9bb9c6"/></g></g></svg>